<svg viewBox="0 0 306 306" fill="none" xmlns="http://www.w3.org/2000/svg">
<g clip-path="url(#clip0)">
<path d="M248.625 300.023L57.375 300.023C57.375 286.828 68.0844 276.117 81.2812 276.117L224.719 276.117C237.921 276.117 248.625 286.821 248.625 300.023Z" fill="#31427C"/>
<path d="M57.375 5.97655L248.625 5.97656C248.625 19.1788 237.921 29.8828 224.719 29.8828C218.825 29.8828 87.6421 29.8828 81.2812 29.8828C68.0856 29.8828 57.375 19.1734 57.375 5.97655Z" fill="#31427C"/>
<path d="M129.387 169.017C101.386 178.771 81.2813 205.349 81.2813 236.672L81.2812 276.117L224.719 276.117L224.719 236.672C224.719 205.349 204.614 178.771 176.613 169.017C169.71 166.615 164.953 160.309 164.953 153C164.953 145.715 169.678 139.399 176.613 136.983C204.614 127.229 224.719 98.8583 224.719 67.5352L224.719 29.8828L81.2813 29.8828L81.2813 67.5352C81.2813 98.8583 101.386 127.229 129.387 136.983C136.29 139.385 141.047 145.691 141.047 153C141.047 160.285 136.322 166.601 129.387 169.017Z" fill="#E7C68C"/>
<path d="M105.187 29.8828L200.813 29.8828C200.813 50.1673 187.927 58.1221 168.748 64.8038C162.67 66.9196 157.333 70.3441 153 74.6831C148.667 70.3441 143.324 66.9136 137.246 64.8038C118.073 58.122 105.187 50.1672 105.187 29.8828Z" fill="#B01D1D"/>
<path d="M105.187 236.672C105.187 216.393 118.066 198.272 137.252 191.591C143.33 189.475 148.667 186.05 153 181.711C157.333 186.05 162.676 189.481 168.754 191.591C187.927 198.272 200.813 216.387 200.812 236.672C185.764 229.147 169.382 225.388 153 225.388C136.618 225.388 120.236 229.147 105.187 236.672Z" fill="#B01D1D"/>
<path d="M153 103.395C156.299 103.395 158.977 100.717 158.977 97.418C158.977 94.1189 156.299 91.4414 153 91.4414C149.701 91.4414 147.023 94.1189 147.023 97.418C147.023 100.717 149.701 103.395 153 103.395Z" fill="#25295C"/>
<path d="M127.42 163.373C96.2483 174.232 75.3047 203.688 75.3047 236.672L75.3047 270.738C61.7958 273.468 51.3984 285.438 51.3984 300.023C51.3984 303.324 54.0747 306 57.375 306L248.625 306C251.925 306 254.602 303.324 254.602 300.023C254.602 285.592 244.319 273.519 230.695 270.742L230.695 236.672C230.695 203.688 209.752 174.232 178.578 163.372C173.931 161.756 170.93 157.684 170.93 153C170.93 148.279 174.023 144.214 178.58 142.627C209.265 131.938 230.695 101.059 230.695 67.5352L230.695 35.2581C244.319 32.4814 254.602 20.4082 254.602 5.97659C254.602 2.67633 251.925 3.02836e-05 248.625 2.99951e-05L57.375 1.32755e-05C54.0747 1.2987e-05 51.3984 2.67631 51.3984 5.97658C51.3984 13.9547 54.5074 21.4577 60.1535 27.1049C64.3622 31.3136 69.6042 34.1101 75.3047 35.2623L75.3047 67.5352C75.3047 101.059 96.7354 131.938 127.422 142.628C132.069 144.244 135.07 148.316 135.07 153C135.07 157.721 131.977 161.786 127.42 163.373ZM241.624 294.107L64.3681 294.107C66.8753 287.007 73.5099 282.094 81.2812 282.094L224.719 282.094C232.51 282.094 239.158 287.149 241.624 294.107ZM64.3688 11.9531L241.624 11.9532C239.158 18.9105 232.51 23.9063 224.719 23.9063L81.2812 23.9063C76.4952 23.9063 71.9936 22.0404 68.6055 18.6528C66.6811 16.7278 65.2479 14.4442 64.3688 11.9531ZM194.323 35.8594C192.093 47.9918 182.583 53.6552 166.784 59.159C161.82 60.8868 157.136 63.4592 153.001 66.708C148.859 63.4544 144.173 60.8821 139.213 59.1596C123.415 53.6546 113.907 47.9912 111.677 35.8594L194.323 35.8594ZM131.353 131.339C105.391 122.295 87.2578 96.0583 87.2578 67.5352L87.2578 35.8594L99.5839 35.8594C102.253 57.0983 119.253 64.8624 135.285 70.4499C140.332 72.2017 144.996 75.126 148.77 78.9062C149.892 80.0286 151.413 80.6597 152.999 80.6597C154.586 80.6597 156.107 80.0286 157.228 78.9062C161.052 75.077 165.588 72.2309 170.713 70.4475C186.743 64.863 203.746 57.0995 206.415 35.8594L218.742 35.8594L218.742 67.5352C218.742 96.0583 200.609 122.295 174.648 131.339C165.319 134.589 158.977 143.152 158.977 153C158.977 162.695 165.275 171.399 174.647 174.661C201.022 183.849 218.742 208.769 218.742 236.672L218.742 270.141L87.2578 270.141L87.2578 236.672C87.2578 208.768 104.978 183.849 131.352 174.661C140.681 171.411 147.023 162.848 147.023 153C147.023 143.305 140.725 134.601 131.353 131.339Z" fill="#25295C"/>
<path d="M109.157 205.567C102.65 214.717 99.2109 225.472 99.2109 236.672C99.2109 238.743 100.284 240.667 102.046 241.756C103.808 242.844 106.008 242.943 107.86 242.018C121.798 235.048 137.407 231.365 153 231.365C168.593 231.365 184.202 235.048 198.14 242.017C199.992 242.944 202.192 242.845 203.954 241.756C205.717 240.666 206.789 238.743 206.789 236.672C206.789 213.85 192.295 193.466 170.715 185.945C165.668 184.193 161.004 181.269 157.23 177.488C156.108 176.366 154.587 175.735 153.001 175.735C151.414 175.735 149.893 176.366 148.772 177.488C144.948 181.318 140.412 184.164 135.287 185.947C124.697 189.635 115.661 196.419 109.157 205.567ZM152.999 189.687C157.141 192.94 161.827 195.513 166.787 197.235C180.44 201.992 190.447 213.373 193.7 227.008C180.754 222.018 166.871 219.412 152.999 219.412C139.125 219.412 125.239 222.02 112.291 227.011C113.523 221.835 115.747 216.923 118.897 212.494C123.956 205.379 130.984 200.103 139.216 197.236C144.18 195.508 148.864 192.935 152.999 189.687Z" fill="#25295C"/>
<path d="M153 141.047C156.3 141.047 158.977 138.371 158.977 135.07L158.977 121.324C158.977 118.024 156.3 115.348 153 115.348C149.7 115.348 147.023 118.024 147.023 121.324L147.023 135.07C147.023 138.371 149.7 141.047 153 141.047Z" fill="#25295C"/>
</g>
<defs>
<clipPath id="clip0">
<rect width="306" height="306" fill="white" transform="translate(306 306) rotate(-180)"/>
</clipPath>
</defs>
</svg>
