<svg viewBox="0 0 2560 1600" fill="none" xmlns="http://www.w3.org/2000/svg">
<g opacity="0.5">
<line x1="162" y1="8.74228e-08" x2="162" y2="1600" stroke="#DCB680" stroke-width="4" stroke-dasharray="16 10"/>
<line x1="322" y1="8.74228e-08" x2="322" y2="1600" stroke="#DCB680" stroke-width="4" stroke-dasharray="16 10"/>
<line x1="483" y1="8.74228e-08" x2="483" y2="1600" stroke="#DCB680" stroke-width="4" stroke-dasharray="16 10"/>
<line x1="643" y1="8.74228e-08" x2="643" y2="1600" stroke="#DCB680" stroke-width="4" stroke-dasharray="16 10"/>
<line x1="803" y1="8.74228e-08" x2="803" y2="1600" stroke="#DCB680" stroke-width="4" stroke-dasharray="16 10"/>
<line x1="963" y1="8.74228e-08" x2="963" y2="1600" stroke="#DCB680" stroke-width="4" stroke-dasharray="16 10"/>
<line x1="1124" y1="8.74228e-08" x2="1124" y2="1600" stroke="#DCB680" stroke-width="4" stroke-dasharray="16 10"/>
<line x1="1284" y1="8.74228e-08" x2="1284" y2="1600" stroke="#DCB680" stroke-width="4" stroke-dasharray="16 10"/>
<line x1="1441" y1="8.74228e-08" x2="1441" y2="1600" stroke="#DCB680" stroke-width="4" stroke-dasharray="16 10"/>
<line x1="1601" y1="8.74228e-08" x2="1601" y2="1600" stroke="#DCB680" stroke-width="4" stroke-dasharray="16 10"/>
<line x1="1762" y1="8.74228e-08" x2="1762" y2="1600" stroke="#DCB680" stroke-width="4" stroke-dasharray="16 10"/>
<line x1="1922" y1="8.74228e-08" x2="1922" y2="1600" stroke="#DCB680" stroke-width="4" stroke-dasharray="16 10"/>
<line x1="2083" y1="8.74228e-08" x2="2083" y2="1600" stroke="#DCB680" stroke-width="4" stroke-dasharray="16 10"/>
<line x1="2243" y1="8.74228e-08" x2="2243" y2="1600" stroke="#DCB680" stroke-width="4" stroke-dasharray="16 10"/>
<line x1="2404" y1="8.74228e-08" x2="2404" y2="1600" stroke="#DCB680" stroke-width="4" stroke-dasharray="16 10"/>
<line x1="2562" y1="3" x2="-0.00219744" y2="2.99978" stroke="#DCB680" stroke-width="4" stroke-dasharray="16 10"/>
<line x1="2562" y1="164" x2="-0.00219744" y2="164" stroke="#DCB680" stroke-width="4" stroke-dasharray="16 10"/>
<line x1="2562" y1="324" x2="-0.00219744" y2="324" stroke="#DCB680" stroke-width="4" stroke-dasharray="16 10"/>
<line x1="2562" y1="484" x2="-0.00219744" y2="484" stroke="#DCB680" stroke-width="4" stroke-dasharray="16 10"/>
<line x1="2562" y1="644" x2="-0.00219744" y2="644" stroke="#DCB680" stroke-width="4" stroke-dasharray="16 10"/>
<line x1="2562" y1="805" x2="-0.00219744" y2="805" stroke="#DCB680" stroke-width="4" stroke-dasharray="16 10"/>
<line x1="2562" y1="965" x2="-0.00219744" y2="965" stroke="#DCB680" stroke-width="4" stroke-dasharray="16 10"/>
<line x1="2562" y1="1122" x2="-0.00219744" y2="1122" stroke="#DCB680" stroke-width="4" stroke-dasharray="16 10"/>
<line x1="2562" y1="1282" x2="-0.00219744" y2="1282" stroke="#DCB680" stroke-width="4" stroke-dasharray="16 10"/>
<line x1="2562" y1="1443" x2="-0.00219744" y2="1443" stroke="#DCB680" stroke-width="4" stroke-dasharray="16 10"/>
</g>
</svg>
