<svg width="100" height="100" viewBox="0 0 100 100" fill="none" xmlns="http://www.w3.org/2000/svg">
<path d="M92.9031 85.3637C93.2263 84.0002 92.8574 82.5045 91.7959 81.443L80.3841 70.0309L88.3886 62.0262C90.7957 59.6192 90.8923 55.5895 88.381 53.1696C85.9837 50.8592 82.1175 50.8956 79.7627 53.2505C78.1513 54.8618 77.564 57.2186 78.2298 59.401C78.2699 59.5323 78.2683 59.7169 78.1435 59.8417L75.7396 62.2458L64.8728 50.551L97.4078 20.3196C97.8142 19.952 98.0714 19.4508 98.133 18.9059L99.9855 2.50085C100.063 1.81765 99.8279 1.14695 99.3418 0.660619C98.8556 0.174487 98.1857 -0.060279 97.5015 0.0168694L81.097 1.8696C80.5519 1.93113 80.0507 2.18855 79.683 2.59499L75.5521 7.0407C75.0013 7.63327 75.0353 8.56023 75.6281 9.11081C76.2207 9.66159 77.1476 9.62761 77.6982 9.03484L81.6777 4.75222L94.6427 3.28796L29.9732 67.9592L26.3324 64.3182C28.9398 61.5124 70.9933 16.2512 73.4488 13.6085C73.9996 13.0159 73.9656 12.0889 73.3728 11.5384C72.7802 10.9876 71.8533 11.0217 71.3027 11.6143L49.9992 34.5424L20.3173 2.59656C19.9507 2.18874 19.4492 1.93074 18.9021 1.86902L2.49879 0.0174553C1.85093 -0.0557868 1.21363 0.151049 0.734528 0.587768C0.707966 0.610815 0.682185 0.634643 0.656989 0.659838C0.631599 0.685229 0.60738 0.711205 0.584333 0.737963C0.148005 1.21706 -0.0590264 1.85359 0.0146064 2.50066L1.86617 18.9051C1.92789 19.4526 2.1859 19.9542 2.59371 20.3208L35.1261 50.5499L24.2595 62.2452L21.856 59.8417C21.7312 59.7169 21.7296 59.5321 21.7697 59.4008C22.4357 57.2184 21.8484 54.8618 20.2369 53.2505C17.8822 50.8954 14.0158 50.8594 11.6185 53.1696C9.10621 55.5907 9.20504 59.6206 11.6109 62.0262L19.6154 70.0309L18.8539 70.7924C18.2818 71.3645 18.2818 72.292 18.8539 72.8641C19.4259 73.4362 20.3535 73.4362 20.9253 72.8641L21.6869 72.1026L27.9017 78.3176L16.49 89.7297C16.0039 90.2159 15.2168 90.2161 14.7304 89.7297L12.5066 87.5057L12.5029 87.5018L12.4992 87.4981L10.2753 85.2741C9.79019 84.7889 9.79019 83.9997 10.2753 83.5145L16.5076 77.2819C17.0796 76.7098 17.0796 75.7823 16.5076 75.2102C15.9355 74.6381 15.008 74.6381 14.4361 75.2102L8.20387 81.4428C7.14234 82.5043 6.7734 84 7.09664 85.3635C5.29761 85.419 3.51519 86.1315 2.14508 87.5018C-0.710589 90.3577 -0.710589 95.0043 2.14508 97.86C3.57242 99.2881 5.4482 100.002 7.32379 100.002C9.19937 100.002 11.075 99.2881 12.5029 97.8602C13.873 96.4901 14.5857 94.7077 14.641 92.9086C16.0164 93.2346 17.5084 92.8545 18.5615 91.8014L29.9732 80.3893L37.9777 88.394C40.366 90.7825 44.3968 90.9159 46.8341 88.3864C49.1445 85.9889 49.1082 82.1227 46.7533 79.7678C45.1421 78.1565 42.7855 77.569 40.6029 78.235C40.4716 78.275 40.2871 78.2733 40.1623 78.1487L37.7587 75.745L50.0004 64.3702L55.9029 69.8551C56.1849 70.1172 56.5427 70.2469 56.8998 70.2469C57.2927 70.2469 57.6847 70.0897 57.9732 69.7792C58.524 69.1864 58.49 68.2594 57.8972 67.7088L52.1525 62.3706L56.3728 58.4491L67.9545 70.0311L64.314 73.6717L62.4732 71.9612C61.8806 71.4104 60.9537 71.4448 60.4029 72.0372C59.8521 72.6299 59.8861 73.5569 60.4789 74.1075L62.241 75.745L59.8371 78.1489C59.7121 78.2737 59.5275 78.275 59.3962 78.2352C57.214 77.5692 54.8574 78.1567 53.2461 79.768C50.8912 82.1231 50.8548 85.9893 53.1652 88.3866C55.6041 90.9176 59.6347 90.7811 62.0216 88.3942L70.0261 80.3895L81.4379 91.8016C82.2517 92.6155 83.3203 93.0221 84.389 93.0221C84.7144 93.0221 85.04 92.9842 85.3584 92.9088C85.4138 94.7081 86.1263 96.4905 87.4966 97.8606C88.9246 99.2885 90.8002 100.002 92.6757 100.002C94.5513 100.002 96.4269 99.2885 97.8548 97.8606C100.711 95.0047 100.711 90.3581 97.8548 87.5022C96.4845 86.1319 94.7021 85.4192 92.9031 85.3637ZM47.9998 36.6944L43.5505 41.4829L5.35718 3.28855L18.3207 4.75183L47.9998 36.6944ZM4.74879 18.3241L3.2855 5.36023L41.555 43.6307L37.1201 48.4038L4.74879 18.3241ZM10.4312 95.7887C8.71773 97.5022 5.92984 97.5022 4.21636 95.7887C2.50308 94.0752 2.50308 91.2872 4.21636 89.5737C5.92183 87.8684 8.70367 87.8545 10.4238 89.5663L10.4386 89.5813C12.1445 91.2954 12.1421 94.0776 10.4312 95.7887ZM96.7144 5.35945L95.2504 18.3247C91.8857 21.4512 39.233 70.3758 35.6859 73.6717L32.0449 70.0307L96.7144 5.35945ZM41.4582 81.0372C42.6021 80.6879 43.8377 80.9954 44.6818 81.8395C45.9152 83.0731 45.9345 85.0981 44.7248 86.3534C43.4722 87.6532 41.3298 87.6028 40.0494 86.3223C37.2066 83.4795 16.4892 62.7614 13.6824 59.9545C12.4201 58.692 12.3361 56.5465 13.6513 55.2792C14.9048 54.071 16.93 54.087 18.165 55.3221C19.0089 56.1661 19.3164 57.4012 18.9671 58.5456C18.5994 59.7508 18.9123 61.0413 19.7839 61.9131L38.0906 80.2202C38.9625 81.0919 40.2531 81.4053 41.4582 81.0372ZM58.5205 56.4534L62.7265 52.5452L73.6666 64.3188L70.0261 67.9594L58.5205 56.4534ZM59.95 86.3223C58.6875 87.5846 56.5423 87.6688 55.2746 86.3534C54.0648 85.0981 54.0839 83.0729 55.3175 81.8395C56.1593 80.9975 57.3931 80.6873 58.541 81.0372C59.7464 81.4051 61.0367 81.092 61.9084 80.2204C82.2068 59.9215 74.5453 67.5831 80.2148 61.9133C81.0867 61.0416 81.3998 59.7512 81.0318 58.5458C80.6826 57.4012 80.99 56.1661 81.8339 55.3221C83.0675 54.0885 85.0925 54.0694 86.3476 55.2792C87.6634 56.5473 87.5783 58.6926 86.3166 59.9545L59.95 86.3223ZM83.5093 89.7297L72.0976 78.3176L78.3125 72.1026L89.7242 83.5147C90.2091 83.9999 90.2091 84.7891 89.7242 85.2743C88.0984 86.9 86.8498 88.1487 85.2689 89.7295C84.7838 90.2149 83.9945 90.2147 83.5093 89.7297ZM95.783 95.7887C94.0695 97.502 91.2814 97.5022 89.5681 95.7887C87.8572 94.0776 87.8546 91.2954 89.5607 89.5811L89.5755 89.5661C91.2818 87.868 94.0644 87.8549 95.783 89.5735C97.4964 91.2872 97.4964 94.0752 95.783 95.7887Z" fill="#654F2F"/>
</svg>
