<svg  viewBox="0 0 1029 690" fill="none" xmlns="http://www.w3.org/2000/svg">
<path fill-rule="evenodd" clip-rule="evenodd" d="M127.284 477.646L429.97 525.394L433.636 514.547C426.223 513 313.429 477.266 308.234 475.596C295.368 471.462 185.738 437.996 183.597 436.277C185.338 423.807 189.369 408.677 192.019 395.843L239.172 171.562C239.86 168.228 240.62 164.742 241.342 161.278C242.451 155.957 242.853 155.771 240.059 151.979C233.087 142.518 226.375 132.252 219.263 123.207C217.775 125.342 198.577 201.794 195.934 211.358C187.803 240.779 180.645 270.599 172.799 300.125L137.993 433.453C136.022 440.907 134.205 448.106 132.233 455.731C131.251 459.527 130.352 462.858 129.358 466.629C128.843 468.583 126.273 475.898 127.284 477.646Z" fill="#8F1919"/>
<path fill-rule="evenodd" clip-rule="evenodd" d="M836.769 436.278C834.107 438.145 638.167 498.591 618.276 504.915C608.008 508.179 596.901 511.884 586.832 514.543L590.436 525.156L893.287 477.697C893.988 474.559 873.255 399.205 870.757 389.236C863.301 359.481 855.112 330.397 847.639 300.545C840.31 271.273 832.623 240.69 824.515 211.763C816.281 182.381 809.914 152.404 801.375 123.157C798.607 125.851 784.203 146.455 780.757 151.27C776.583 157.103 777.624 154.707 780.91 170.375L802.429 272.564C808.114 299.569 813.814 326.869 819.564 354.18C824.109 375.771 833.701 417.129 836.769 436.278Z" fill="#8F1919"/>
<path fill-rule="evenodd" clip-rule="evenodd" d="M225.029 412.593L448.949 500.906C451.867 499.562 453.936 496.327 456.017 494.493C454.509 492.864 328.758 431.79 314.961 425.02C307.11 421.168 272.018 404.483 267.764 401.61L300.907 149.637C302.835 134.053 304.462 140.801 289.908 119.151L280.839 105.938L225.029 412.593Z" fill="#242865"/>
<path fill-rule="evenodd" clip-rule="evenodd" d="M752.544 401.61C748.026 404.813 735.261 410.411 729.433 413.229C721.549 417.04 713.527 421.149 705.649 424.801C689.544 432.268 674.078 440.355 658.258 448.044C648.546 452.764 566.084 492.592 564.324 494.493L570.42 501.036C575.293 499.929 747.212 431.213 766.731 423.758C775.742 420.316 786.248 415.209 795.072 412.648L739.62 105.812C737.256 107.87 724.619 127.868 721.741 132.166C716.537 139.942 717.839 137.49 719.267 148.419C720.123 154.968 721.037 161.499 721.843 168.036L752.544 401.61Z" fill="#242865"/>
<path fill-rule="evenodd" clip-rule="evenodd" d="M298.984 384.243L462.207 473.376C473.516 479.477 477.123 483.405 489.71 481.622L339.938 373.463C342.533 349.207 343.143 322.93 344.996 298.272C348.806 247.584 351.066 197.917 354.921 147.239L356.871 119.029C357.14 113.174 350.287 102.974 347.423 97.5695C345.101 93.1887 341.982 88.3055 340.496 84.1841L339.612 86.2826C339.513 86.6494 339.313 88.0445 339.253 88.5165C339.055 90.0915 338.876 91.5683 338.649 93.1421L319.517 233.578C312.768 283.752 305.051 334.056 298.984 384.243Z" fill="white"/>
<path fill-rule="evenodd" clip-rule="evenodd" d="M680.419 373.709C679.222 374.702 677.54 375.754 675.998 376.832L643.29 400.38C632.482 408.02 531.704 480.195 530.775 481.856C546.518 481.272 540.179 483.3 558.086 473.449C566.143 469.017 573.448 465.182 581.274 460.689C596.798 451.776 612.307 444.127 627.806 435.247C635.48 430.85 643.188 426.557 651.017 422.506C658.76 418.499 666.521 413.784 674.29 409.778L721.071 383.949C721.28 377.623 702.277 244.445 700.878 234.066C694.473 186.542 687.032 136.438 681.102 88.9477C681.013 88.2366 680.954 87.3256 680.799 86.6448C680.75 86.4275 680.584 85.827 680.517 85.636C680.164 84.6304 680.212 84.8163 679.838 84.271L666.008 110.407C662.078 117.566 663.563 118.578 664.056 127.527C664.405 133.844 664.924 140.185 665.372 146.485C668.952 196.819 671.236 247.82 675.316 297.627C677.384 322.877 678.463 348.545 680.419 373.709Z" fill="white"/>
<path fill-rule="evenodd" clip-rule="evenodd" d="M453.42 524.581C454.198 525.564 453.319 524.532 454.435 525.63C454.727 525.918 455.087 526.246 455.452 526.603C456.532 527.655 456.422 527.655 457.44 528.493C458.672 529.506 460.481 531.122 462.15 531.741C481.052 510.236 510.19 503.516 538.25 517.676C544.413 520.786 548.776 524.136 553.942 528.151C555.125 529.071 555.42 529.141 556.536 530.181C557.789 531.35 557.442 531.303 558.774 532.277C560.985 530.827 565.111 526.207 566.488 523.995C557.284 517.478 558.814 515.847 542.739 507.322C521.87 496.255 497.962 496.1 476.912 506.742C468.389 511.05 457.653 518.868 453.42 524.581Z" fill="#8F1919"/>
<path fill-rule="evenodd" clip-rule="evenodd" d="M495.395 71.3819L504.648 72.0564L505.021 51.6487L495.724 51.6035L495.395 71.3819ZM406.5 366.403L406.687 396.906C407.178 397.177 407.788 397.58 408.169 397.705L466.832 398.282L466.307 365.551C458.587 364.248 414.292 362.862 406.5 366.403ZM538.103 240.461L614.291 240.297C619.852 234.729 624.22 226.381 627.274 219.39L520.982 219.378L394.163 219.37C397.311 226.393 401.685 234.74 407.198 240.512L538.103 240.461ZM569.096 290.157C569.096 264.157 590.912 268.249 590.912 288.022L591.009 309.377L590.431 317.5L569.31 317.749L569.096 309.372V290.157ZM614.849 272.629L614.214 243.669L543.59 243.627L406.737 243.647L406.981 362.434C495.154 362.404 452.973 366.56 474.217 337.953C483.107 325.981 481.682 331.709 481.446 311.521C481.187 289.354 489.124 272.089 511.79 272.707C534.303 273.321 540.331 291.282 540.001 313.707C539.559 343.785 546.702 325.973 553.405 351.081C557.337 365.812 545.164 362.381 614.758 362.507L614.849 272.629ZM430.577 288.022C430.577 268.249 452.392 264.157 452.392 290.157L452.447 309.374L452.122 317.634L430.949 317.543L430.577 309.372V288.022ZM437.088 277.598C431.861 286.606 434.367 303.088 434.184 313.807L449.023 313.33C448.863 299.036 454.127 271.214 437.088 277.598ZM572.485 312.906L587.296 314.001C587.122 303.088 589.628 286.606 584.401 277.598C567.448 270.67 572.62 299.515 572.485 312.906ZM484.665 325.844C521.193 315.233 501.666 316.158 536.823 325.844C536.823 313.862 538.844 299.922 533.475 289.859C529.301 282.037 520.639 275.554 509.869 275.921C480.098 276.933 484.665 311.811 484.665 325.844ZM473.84 364.682C484.528 354.654 489.447 344.153 511.833 344.621C533.196 345.067 537.096 355.11 547.648 364.682C550.367 314.533 471.121 314.533 473.84 364.682ZM547.357 398.291C551.984 366.341 535.643 347.213 509.703 347.76C495.546 348.059 486.465 355.284 479.963 362.883C472.103 372.071 471.94 383.158 474.45 398.246L547.357 398.291ZM614.802 396.906L614.989 366.403L554.618 365.552L555.271 398.282L614.802 396.906ZM484.515 215.333L499.257 216.008L499.243 213.298L498.51 178.651C478.761 175.35 484.593 196.994 484.515 215.333ZM452.233 215.591L466.976 215.953C466.762 203.924 468.243 188.773 465.201 178.988C446.595 174.39 452.354 197.577 452.233 215.591ZM420.008 215.891L434.755 215.719C434.699 207.738 435.018 199.532 434.865 191.777C434.672 182.097 433.786 178.361 424.877 177.753C416.756 185.717 420.406 193.714 420.008 215.891ZM502.751 192.624L502.69 215.941L511.813 215.783L513.641 209.31C513.59 196.797 509.624 168.76 528.179 175.195C541.308 179.748 531.063 205.059 537.431 215.929L543.836 215.917C550.401 203.804 537.985 174.592 556.629 174.752C570.512 174.871 567.281 192.221 567.327 202.744L569.456 215.912L575.861 215.932C576.149 215.423 576.438 214.026 576.516 214.309L577.9 193.952C577.847 184.323 576.719 180.228 584.597 177.201C579.747 187.691 581.598 202.684 581.461 216.02L596.508 215.423C595.932 187.94 601.024 179.605 584.597 177.201C584.614 177.184 586.143 172.334 593.698 175.757C597.531 177.494 598.724 180.496 599.464 185.562C600.458 192.374 599.625 208.117 599.484 215.698L630.041 215.999L630.001 110.446L494.923 110.493L391.52 110.461V215.942L416.886 215.428C416.865 202.151 415.37 186.252 419.4 176.471C425.781 174.098 429.155 174.255 435.411 176.671C439.326 186.646 437.887 202.371 437.887 214.892L449.158 214.979C449.148 202.386 447.66 186.494 451.699 176.671C462.473 172.52 469.025 173.503 470.244 185.889C471.483 198.457 467.404 208.674 473.382 215.917L479.791 215.674C487.381 198.964 469.416 173.399 497.613 174.869C502.59 180.636 502.411 181.975 502.751 192.625V192.624ZM516.712 215.093L531.722 216.128C531.642 203.746 532.967 188.749 529.865 178.483C510.717 175.717 517.014 197.045 516.712 215.093ZM550.241 215.321L564.216 216.107C564.052 206.635 568.024 175.224 555.25 178.12C546.225 180.166 547.323 206.545 550.241 215.321ZM507.487 73.9501L493.316 74.8087L492.407 49.5723C497.879 47.6971 502.129 47.6079 507.392 48.9381L507.487 73.9501ZM525.319 47.3094C529.997 53.3674 530.406 63.7531 528.159 74.7344L514.111 74.2495L513.049 65.9955L513.734 48.9224L525.319 47.3094ZM501.408 89.2496L567.764 89.1386C564.353 81.857 539.561 42.6241 534.928 38.9541C532.395 30.5809 515.694 5.34495 509.877 0C497.463 22.8652 461.506 72.1024 453.743 89.2276L501.408 89.2496ZM498.004 96.1637L441.49 96.5237L440.098 103.166C452.888 105.134 575.5 104.975 581.137 102.279L581.329 98.0114C573.492 92.989 512.073 95.9858 498.004 96.1637ZM523.243 50.9636L516.68 51.5518L516.388 59.2983L516.653 71.6695L525.737 71.8296L526.32 55.3113L523.243 50.9636Z" fill="#8F1919"/>
<path fill-rule="evenodd" clip-rule="evenodd" d="M162.665 581.603C162.081 581.362 161.772 580.916 161.772 580.331V559.943C161.772 559.289 162.081 558.843 162.665 558.671V558.087H156.683V558.671C157.268 558.843 157.577 559.289 157.577 559.943V561.284L146.437 573.901V559.943C146.437 559.289 146.747 558.843 147.365 558.671V558.087H141.383V558.671C141.967 558.843 142.277 559.289 142.277 559.943V580.331C142.277 580.916 141.967 581.362 141.383 581.603V582.153H147.365V581.603C146.747 581.362 146.437 580.95 146.437 580.331V578.99L157.577 566.338V580.331C157.577 580.95 157.268 581.362 156.683 581.603V582.153H162.665V581.603ZM184.429 574.211C184.429 575.14 183.879 575.999 182.779 576.79C181.919 577.444 180.957 577.89 179.891 578.165C179.1 578.372 178.309 578.474 177.552 578.474C175.215 578.474 173.358 577.649 171.949 575.999C170.642 574.452 169.988 572.458 169.988 570.086C169.988 567.713 170.642 565.753 171.949 564.206C173.358 562.556 175.215 561.731 177.552 561.731C178.48 561.731 179.306 561.834 180.096 562.04C181.231 562.35 182.159 562.797 182.95 563.381C183.947 564.137 184.429 564.997 184.429 565.994L184.841 566.338L187.488 561.318L187.145 560.974C186.973 561.215 186.732 561.318 186.389 561.318C186.113 561.318 185.151 560.734 183.535 559.565C181.782 558.293 179.65 557.674 177.071 557.674C173.53 557.674 170.711 558.877 168.648 561.284C166.688 563.553 165.725 566.476 165.725 570.086C165.725 573.662 166.688 576.618 168.648 578.922C170.711 581.362 173.496 582.497 177.037 582.497C177.69 582.497 178.309 582.463 178.825 582.394C180.371 582.222 181.919 581.707 183.466 580.709C185.426 579.437 186.458 578.784 186.492 578.784C186.698 578.784 186.904 578.922 187.145 579.231L187.488 578.922L184.841 573.901L184.429 574.211ZM207.43 556.917C207.258 557.708 206.914 558.087 206.399 558.087H190.239C189.724 558.087 189.414 557.708 189.242 556.917H188.761V563.175H189.242C189.414 562.418 189.724 562.04 190.239 562.04H196.222V580.4C196.222 580.985 195.912 581.362 195.328 581.603V582.153H201.344V581.603C200.726 581.362 200.416 580.916 200.416 580.331V562.04H206.399C206.914 562.04 207.258 562.418 207.43 563.175H207.877V556.917H207.43ZM227.2 570.223C227.2 572.423 226.65 574.314 225.515 575.861C224.243 577.616 222.524 578.474 220.427 578.474C218.295 578.474 216.61 577.581 215.338 575.792C214.238 574.211 213.688 572.32 213.688 570.086C213.688 567.851 214.272 565.96 215.372 564.413C216.644 562.625 218.295 561.731 220.427 561.731C222.627 561.731 224.346 562.625 225.584 564.413C226.65 565.994 227.2 567.92 227.2 570.223ZM231.531 570.257C231.531 568.297 231.257 566.578 230.706 565.066C229.056 560.527 225.24 557.674 220.427 557.674C216.954 557.674 214.203 558.912 212.174 561.353C210.284 563.622 209.355 566.544 209.355 570.086C209.355 572.664 209.906 574.967 210.972 576.962C212.14 579.128 213.859 580.744 216.094 581.672C217.47 582.222 218.914 582.497 220.427 582.497C223.865 582.497 226.615 581.362 228.643 578.922C230.569 576.618 231.531 573.73 231.531 570.257ZM249.788 565.238C249.788 567.885 248.378 568.4 246.006 568.4H239.577V562.04H246.006C247.347 562.04 248.275 562.246 248.825 562.625C249.479 563.106 249.788 563.965 249.788 565.238ZM254.086 565.238C254.086 560.183 251.644 558.087 246.522 558.087H234.488V558.671C235.073 558.843 235.382 559.289 235.382 559.943V580.331C235.382 580.95 235.073 581.362 234.488 581.603V582.153H240.47V581.603C239.886 581.362 239.577 580.95 239.577 580.331V572.389H246.522C251.576 572.389 254.086 570.017 254.086 565.238ZM277.878 581.603C277.293 581.362 276.984 580.916 276.984 580.331V559.943C276.984 559.289 277.293 558.843 277.878 558.671V558.087H271.895V558.671C272.48 558.843 272.789 559.289 272.789 559.943V561.284L261.65 573.901V559.943C261.65 559.289 261.959 558.843 262.577 558.671V558.087H256.595V558.671C257.18 558.843 257.489 559.289 257.489 559.943V580.331C257.489 580.916 257.18 581.362 256.595 581.603V582.153H262.577V581.603C261.959 581.362 261.65 580.95 261.65 580.331V578.99L272.789 566.338V580.331C272.789 580.95 272.48 581.362 271.895 581.603V582.153H277.878V581.603ZM302.495 581.603C301.978 581.5 301.566 581.259 301.257 580.95L299.882 578.99L292.455 567.816L300.054 560.149C300.638 559.53 301.153 558.808 302.013 558.671V558.087H294.14V558.671C294.69 558.774 294.965 559.015 294.965 559.358C294.965 559.599 294.793 559.874 294.415 560.252L286.438 568.332V559.943C286.438 559.289 286.748 558.843 287.366 558.671V558.087H281.384V558.671C281.968 558.843 282.278 559.289 282.278 559.943V580.331C282.278 580.916 281.968 581.362 281.384 581.603V582.153H287.366V581.603C286.748 581.362 286.438 580.95 286.438 580.331V573.833L289.361 570.911L295.034 579.609C295.481 580.331 295.721 580.744 295.721 580.916C295.721 581.225 295.481 581.431 294.965 581.603V582.153H302.495V581.603ZM321.886 570.223C321.886 572.423 321.335 574.314 320.201 575.861C318.929 577.616 317.21 578.474 315.112 578.474C312.981 578.474 311.295 577.581 310.024 575.792C308.924 574.211 308.373 572.32 308.373 570.086C308.373 567.851 308.958 565.96 310.058 564.413C311.33 562.625 312.981 561.731 315.112 561.731C317.313 561.731 319.032 562.625 320.27 564.413C321.335 565.994 321.886 567.92 321.886 570.223ZM326.217 570.257C326.217 568.297 325.942 566.578 325.392 565.066C323.742 560.527 319.926 557.674 315.112 557.674C311.64 557.674 308.889 558.912 306.86 561.353C304.969 563.622 304.041 566.544 304.041 570.086C304.041 572.664 304.592 574.967 305.658 576.962C306.826 579.128 308.545 580.744 310.78 581.672C312.155 582.222 313.6 582.497 315.112 582.497C318.55 582.497 321.3 581.362 323.329 578.922C325.255 576.618 326.217 573.73 326.217 570.257ZM333.437 569.226C333.265 569.983 332.922 570.36 332.405 570.36H328.899C328.383 570.36 328.074 569.983 327.901 569.226H327.455V575.312H327.901C328.074 574.555 328.383 574.177 328.899 574.177H332.405C332.922 574.177 333.265 574.555 333.437 575.312H333.884V569.226H333.437ZM356.92 581.603C356.335 581.362 356.026 580.916 356.026 580.331V559.943C356.026 559.289 356.335 558.843 356.92 558.671V558.087H335.637V558.671C336.221 558.843 336.531 559.289 336.531 559.943V580.331C336.531 580.916 336.221 581.362 335.637 581.603V582.153H341.619V581.603C341.001 581.362 340.691 580.95 340.691 580.331V562.04H351.831V580.331C351.831 580.95 351.522 581.362 350.937 581.603V582.153H356.92V581.603ZM370.225 564.241L373.285 572.699H367.027L370.156 564.241H370.225ZM382.258 581.603C381.811 581.5 381.433 581.19 381.124 580.744C380.986 580.503 380.78 580.056 380.505 579.402L373.182 560.837C373.01 560.39 372.906 559.978 372.906 559.668C372.906 559.152 373.182 558.843 373.732 558.671V558.087H366.924V558.671C367.44 558.877 367.715 559.255 367.715 559.806C367.715 560.184 367.612 560.665 367.405 561.215L360.323 579.712C360.082 580.331 359.91 580.709 359.807 580.881C359.567 581.259 359.223 581.5 358.776 581.603V582.153H365.171V581.603C364.517 581.362 364.208 581.019 364.208 580.537C364.208 580.262 364.312 579.884 364.483 579.402L365.79 575.999H374.557L375.829 579.402C376.001 579.884 376.104 580.262 376.104 580.503C376.104 581.087 375.795 581.431 375.211 581.603V582.153H382.258V581.603ZM401.099 556.917C400.928 557.708 400.584 558.087 400.068 558.087H383.909C383.394 558.087 383.084 557.708 382.912 556.917H382.431V563.175H382.912C383.084 562.418 383.394 562.04 383.909 562.04H389.891V580.4C389.891 580.985 389.582 581.362 388.997 581.603V582.153H395.014V581.603C394.396 581.362 394.086 580.916 394.086 580.331V562.04H400.068C400.584 562.04 400.928 562.418 401.099 563.175H401.547V556.917H401.099ZM418.806 565.238C418.806 567.885 417.397 568.4 415.024 568.4H408.595V562.04H415.024C416.365 562.04 417.294 562.246 417.844 562.625C418.497 563.106 418.806 563.965 418.806 565.238ZM423.104 565.238C423.104 560.183 420.663 558.087 415.54 558.087H403.507V558.671C404.091 558.843 404.401 559.289 404.401 559.943V580.331C404.401 580.95 404.091 581.362 403.507 581.603V582.153H409.489V581.603C408.905 581.362 408.595 580.95 408.595 580.331V572.389H415.54C420.594 572.389 423.104 570.017 423.104 565.238ZM446.896 581.603C446.312 581.362 446.002 580.916 446.002 580.331V559.943C446.002 559.289 446.312 558.843 446.896 558.671V558.087H440.914V558.671C441.498 558.843 441.808 559.289 441.808 559.943V561.284L430.668 573.901V559.943C430.668 559.289 430.978 558.843 431.596 558.671V558.087H425.613V558.671C426.198 558.843 426.508 559.289 426.508 559.943V580.331C426.508 580.916 426.198 581.362 425.613 581.603V582.153H431.596V581.603C430.978 581.362 430.668 580.95 430.668 580.331V578.99L441.808 566.338V580.331C441.808 580.95 441.498 581.362 440.914 581.603V582.153H446.896V581.603ZM467.731 570.223C467.731 572.423 467.181 574.314 466.046 575.861C464.775 577.616 463.056 578.474 460.958 578.474C458.826 578.474 457.141 577.581 455.869 575.792C454.769 574.211 454.219 572.32 454.219 570.086C454.219 567.851 454.803 565.96 455.903 564.413C457.176 562.625 458.826 561.731 460.958 561.731C463.158 561.731 464.878 562.625 466.115 564.413C467.181 565.994 467.731 567.92 467.731 570.223ZM472.063 570.257C472.063 568.297 471.788 566.578 471.238 565.066C469.587 560.527 465.772 557.674 460.958 557.674C457.486 557.674 454.735 558.912 452.706 561.353C450.815 563.622 449.887 566.544 449.887 570.086C449.887 572.664 450.437 574.967 451.503 576.962C452.672 579.128 454.391 580.744 456.626 581.672C458.001 582.222 459.445 582.497 460.958 582.497C464.396 582.497 467.146 581.362 469.175 578.922C471.101 576.618 472.063 573.73 472.063 570.257ZM492.21 556.917C492.038 557.708 491.694 558.087 491.179 558.087H475.02C474.504 558.087 474.194 557.708 474.023 556.917H473.541V563.175H474.023C474.194 562.418 474.504 562.04 475.02 562.04H481.002V580.4C481.002 580.985 480.692 581.362 480.108 581.603V582.153H486.124V581.603C485.506 581.362 485.197 580.916 485.197 580.331V562.04H491.179C491.694 562.04 492.038 562.418 492.21 563.175H492.657V556.917H492.21ZM515.934 581.603C515.349 581.362 515.04 580.916 515.04 580.331V559.943C515.04 559.289 515.349 558.843 515.934 558.671V558.087H509.952V558.671C510.536 558.843 510.845 559.289 510.845 559.943V561.284L499.706 573.901V559.943C499.706 559.289 500.015 558.843 500.633 558.671V558.087H494.651V558.671C495.236 558.843 495.545 559.289 495.545 559.943V580.331C495.545 580.916 495.236 581.362 494.651 581.603V582.153H500.633V581.603C500.015 581.362 499.706 580.95 499.706 580.331V578.99L510.845 566.338V580.331C510.845 580.95 510.536 581.362 509.952 581.603V582.153H515.934V581.603ZM537.938 581.603C537.353 581.362 537.044 580.95 537.044 580.331V559.943C537.044 559.289 537.353 558.877 537.938 558.671V558.087H531.955V558.671C532.54 558.877 532.849 559.289 532.849 559.943V568.4H527.692C526.523 568.4 525.594 568.194 524.873 567.816C524.151 567.438 523.807 566.578 523.807 565.238V559.943C523.807 559.289 524.116 558.877 524.701 558.671V558.087H518.719V558.671C519.303 558.877 519.612 559.289 519.612 559.943V565.238C519.612 570.017 522.122 572.389 527.176 572.389H532.849V580.331C532.849 580.95 532.54 581.362 531.955 581.603V582.153H537.938V581.603ZM559.976 577.065C559.77 577.821 559.426 578.2 558.945 578.2H546.499V571.564H554.372C554.887 571.564 555.197 571.943 555.369 572.699H555.85V566.647H555.369C555.197 567.37 554.887 567.747 554.372 567.747H546.499V562.04H558.6C559.117 562.04 559.426 562.418 559.598 563.175H560.079V556.917H559.598C559.426 557.708 559.117 558.087 558.6 558.087H541.444V558.671C542.028 558.877 542.338 559.289 542.338 559.943V580.331C542.338 580.916 542.028 581.362 541.444 581.603V582.153H558.945C559.426 582.153 559.77 582.463 559.976 583.219H560.388V577.065H559.976ZM581.636 574.211C581.636 575.14 581.086 575.999 579.986 576.79C579.126 577.444 578.164 577.89 577.098 578.165C576.307 578.372 575.516 578.474 574.76 578.474C572.422 578.474 570.565 577.649 569.156 575.999C567.849 574.452 567.196 572.458 567.196 570.086C567.196 567.713 567.849 565.753 569.156 564.206C570.565 562.556 572.422 561.731 574.76 561.731C575.688 561.731 576.513 561.834 577.304 562.04C578.439 562.35 579.367 562.797 580.158 563.381C581.155 564.137 581.636 564.997 581.636 565.994L582.049 566.338L584.696 561.318L584.352 560.974C584.18 561.215 583.94 561.318 583.596 561.318C583.32 561.318 582.358 560.734 580.742 559.565C578.989 558.293 576.857 557.674 574.278 557.674C570.737 557.674 567.918 558.877 565.855 561.284C563.895 563.553 562.933 566.476 562.933 570.086C562.933 573.662 563.895 576.618 565.855 578.922C567.918 581.362 570.703 582.497 574.244 582.497C574.898 582.497 575.516 582.463 576.032 582.394C577.579 582.222 579.126 581.707 580.673 580.709C582.633 579.437 583.665 578.784 583.699 578.784C583.906 578.784 584.111 578.922 584.352 579.231L584.696 578.922L582.049 573.901L581.636 574.211ZM608.592 581.603C608.075 581.5 607.663 581.259 607.354 580.95L605.978 578.99L598.552 567.816L606.15 560.149C606.735 559.53 607.25 558.808 608.11 558.671V558.087H600.237V558.671C600.787 558.774 601.062 559.015 601.062 559.358C601.062 559.599 600.89 559.874 600.511 560.252L592.535 568.332V559.943C592.535 559.289 592.845 558.843 593.463 558.671V558.087H587.481V558.671C588.065 558.843 588.375 559.289 588.375 559.943V580.331C588.375 580.916 588.065 581.362 587.481 581.603V582.153H593.463V581.603C592.845 581.362 592.535 580.95 592.535 580.331V573.833L595.458 570.911L601.131 579.609C601.577 580.331 601.818 580.744 601.818 580.916C601.818 581.225 601.577 581.431 601.062 581.603V582.153H608.592V581.603ZM620.453 564.241L623.512 572.699H617.255L620.384 564.241H620.453ZM632.486 581.603C632.039 581.5 631.661 581.19 631.352 580.744C631.214 580.503 631.007 580.056 630.733 579.402L623.41 560.837C623.238 560.39 623.134 559.978 623.134 559.668C623.134 559.152 623.41 558.843 623.96 558.671V558.087H617.152V558.671C617.668 558.877 617.942 559.255 617.942 559.806C617.942 560.184 617.84 560.665 617.633 561.215L610.551 579.712C610.31 580.331 610.138 580.709 610.035 580.881C609.795 581.259 609.451 581.5 609.003 581.603V582.153H615.398V581.603C614.745 581.362 614.435 581.019 614.435 580.537C614.435 580.262 614.539 579.884 614.711 579.402L616.018 575.999H624.785L626.057 579.402C626.229 579.884 626.331 580.262 626.331 580.503C626.331 581.087 626.023 581.431 625.438 581.603V582.153H632.486V581.603ZM642.32 568.607C639.5 568.607 638.091 567.472 638.091 565.238C638.091 563.931 638.503 563.037 639.294 562.591C639.912 562.212 640.91 562.04 642.32 562.04H648.818V568.607H642.32ZM653.906 581.603C653.322 581.362 653.012 580.95 653.012 580.331V559.943C653.012 559.289 653.322 558.877 653.906 558.671V558.087H641.907C639.191 558.087 637.231 558.602 635.994 559.599C634.618 560.734 633.93 562.591 633.93 565.238C633.93 569.158 635.684 571.53 639.156 572.32L635.443 578.784L634.446 580.572C633.999 581.225 633.45 581.569 632.83 581.603V582.153H639.844V581.603C639.363 581.5 639.122 581.294 639.122 580.95C639.122 580.744 639.363 580.228 639.81 579.402L643.695 572.32H648.818V580.331C648.818 580.95 648.508 581.362 647.924 581.603V582.153H653.906V581.603ZM686.052 574.899C686.052 576.171 685.708 577.031 685.055 577.546C684.471 577.993 683.542 578.2 682.236 578.2H675.05V571.633H682.236C683.542 571.633 684.471 571.839 685.055 572.286C685.708 572.802 686.052 573.662 686.052 574.899ZM685.571 564.859C685.571 566.922 684.574 567.644 682.476 567.644H675.05V562.04H682.476C684.574 562.04 685.571 562.797 685.571 564.859ZM690.349 575.243C690.349 572.458 689.284 570.567 687.152 569.535C688.906 568.469 689.765 566.785 689.765 564.447C689.765 560.218 687.531 558.087 683.026 558.087H669.996V558.671C670.58 558.877 670.89 559.289 670.89 559.943V580.331C670.89 580.916 670.58 581.362 669.996 581.603V582.153H683.164C687.428 582.153 690.349 580.159 690.349 575.243ZM714.589 581.603C714.005 581.362 713.695 580.916 713.695 580.331V559.943C713.695 559.289 714.005 558.843 714.589 558.671V558.087H708.607V558.671C709.191 558.843 709.5 559.289 709.5 559.943V561.284L698.361 573.901V559.943C698.361 559.289 698.67 558.843 699.289 558.671V558.087H693.306V558.671C693.891 558.843 694.2 559.289 694.2 559.943V580.331C694.2 580.916 693.891 581.362 693.306 581.603V582.153H699.289V581.603C698.67 581.362 698.361 580.95 698.361 580.331V578.99L709.5 566.338V580.331C709.5 580.95 709.191 581.362 708.607 581.603V582.153H714.589V581.603ZM739.206 581.603C738.69 581.5 738.277 581.259 737.968 580.95L736.593 578.99L729.166 567.816L736.765 560.149C737.349 559.53 737.865 558.808 738.724 558.671V558.087H730.851V558.671C731.401 558.774 731.676 559.015 731.676 559.358C731.676 559.599 731.504 559.874 731.126 560.252L723.15 568.332V559.943C723.15 559.289 723.459 558.843 724.078 558.671V558.087H718.095V558.671C718.68 558.843 718.989 559.289 718.989 559.943V580.331C718.989 580.916 718.68 581.362 718.095 581.603V582.153H724.078V581.603C723.459 581.362 723.15 580.95 723.15 580.331V573.833L726.072 570.911L731.745 579.609C732.192 580.331 732.432 580.744 732.432 580.916C732.432 581.225 732.192 581.431 731.676 581.603V582.153H739.206V581.603ZM758.424 556.917C758.253 557.708 757.909 558.087 757.393 558.087H741.234C740.719 558.087 740.409 557.708 740.237 556.917H739.755V563.175H740.237C740.409 562.418 740.719 562.04 741.234 562.04H747.216V580.4C747.216 580.985 746.907 581.362 746.322 581.603V582.153H752.339V581.603C751.72 581.362 751.411 580.916 751.411 580.331V562.04H757.393C757.909 562.04 758.253 562.418 758.424 563.175H758.872V556.917H758.424ZM778.194 570.223C778.194 572.423 777.644 574.314 776.509 575.861C775.238 577.616 773.518 578.474 771.421 578.474C769.289 578.474 767.604 577.581 766.332 575.792C765.233 574.211 764.682 572.32 764.682 570.086C764.682 567.851 765.267 565.96 766.366 564.413C767.639 562.625 769.289 561.731 771.421 561.731C773.621 561.731 775.341 562.625 776.578 564.413C777.644 565.994 778.194 567.92 778.194 570.223ZM782.526 570.257C782.526 568.297 782.251 566.578 781.701 565.066C780.051 560.527 776.235 557.674 771.421 557.674C767.949 557.674 765.198 558.912 763.169 561.353C761.278 563.622 760.35 566.544 760.35 570.086C760.35 572.664 760.9 574.967 761.966 576.962C763.135 579.128 764.854 580.744 767.089 581.672C768.464 582.222 769.909 582.497 771.421 582.497C774.859 582.497 777.609 581.362 779.638 578.922C781.564 576.618 782.526 573.73 782.526 570.257ZM800.782 565.238C800.782 567.885 799.373 568.4 797 568.4H790.571V562.04H797C798.342 562.04 799.27 562.246 799.82 562.625C800.473 563.106 800.782 563.965 800.782 565.238ZM805.08 565.238C805.08 560.183 802.639 558.087 797.516 558.087H785.483V558.671C786.067 558.843 786.377 559.289 786.377 559.943V580.331C786.377 580.95 786.067 581.362 785.483 581.603V582.153H791.465V581.603C790.881 581.362 790.571 580.95 790.571 580.331V572.389H797.516C802.57 572.389 805.08 570.017 805.08 565.238ZM828.872 581.603C828.288 581.362 827.978 580.916 827.978 580.331V559.943C827.978 559.289 828.288 558.843 828.872 558.671V558.087H822.89V558.671C823.474 558.843 823.784 559.289 823.784 559.943V561.284L812.644 573.901V559.943C812.644 559.289 812.954 558.843 813.572 558.671V558.087H807.59V558.671C808.174 558.843 808.484 559.289 808.484 559.943V580.331C808.484 580.916 808.174 581.362 807.59 581.603V582.153H813.572V581.603C812.954 581.362 812.644 580.95 812.644 580.331V578.99L823.784 566.338V580.331C823.784 580.95 823.474 581.362 822.89 581.603V582.153H828.872V581.603ZM853.661 581.603C853.042 581.362 852.732 580.916 852.732 580.331V559.943C852.732 559.289 853.042 558.843 853.661 558.671V558.087H847.644V558.671C848.263 558.877 848.573 559.289 848.573 559.943V567.679H837.433V559.943C837.433 559.289 837.743 558.877 838.327 558.671V558.087H832.344V558.671C832.929 558.877 833.239 559.289 833.239 559.943V580.331C833.239 580.95 832.929 581.362 832.344 581.603V582.153H838.327V581.603C837.743 581.362 837.433 580.95 837.433 580.331V571.633H848.573V580.331C848.573 580.95 848.263 581.362 847.644 581.603V582.153H853.661V581.603ZM866.933 564.241L869.992 572.699H863.735L866.864 564.241H866.933ZM878.966 581.603C878.519 581.5 878.14 581.19 877.832 580.744C877.694 580.503 877.487 580.056 877.213 579.402L869.889 560.837C869.718 560.39 869.614 559.978 869.614 559.668C869.614 559.152 869.889 558.843 870.44 558.671V558.087H863.632V558.671C864.148 558.877 864.422 559.255 864.422 559.806C864.422 560.184 864.32 560.665 864.113 561.215L857.031 579.712C856.79 580.331 856.618 580.709 856.515 580.881C856.274 581.259 855.931 581.5 855.483 581.603V582.153H861.878V581.603C861.225 581.362 860.915 581.019 860.915 580.537C860.915 580.262 861.019 579.884 861.191 579.402L862.498 575.999H871.265L872.536 579.402C872.708 579.884 872.811 580.262 872.811 580.503C872.811 581.087 872.502 581.431 871.918 581.603V582.153H878.966V581.603Z" fill="#1B1918"/>
<path fill-rule="evenodd" clip-rule="evenodd" d="M0 607.038C6.83495 607.109 13.8841 607.163 21.1465 607.198C28.4086 607.234 33.2143 607.252 35.5638 607.252C35.991 607.252 37.6997 607.163 40.6906 606.984C43.6806 606.807 47.1341 606.718 51.0497 606.718C53.1853 606.718 54.2538 607.892 54.2538 610.242C54.2538 610.954 54.0754 611.702 53.7197 612.485C53.3637 613.268 52.9723 614.123 52.5451 615.048C51.6908 617.184 51.1212 619.534 50.8358 622.096C50.5513 624.66 50.338 626.226 50.1953 626.796C49.7684 628.291 48.914 629.039 47.6316 629.039C46.5642 629.039 45.8162 628.611 45.3891 627.757C45.2472 627.472 44.9261 626.44 44.4286 624.66C42.862 619.035 40.7261 615.226 38.0205 613.233C36.2406 611.95 33.6769 611.31 30.3312 611.31H27.9814H24.1365V636.728C26.2015 638.722 27.8033 639.985 28.9427 640.52C30.0816 641.053 32.3957 641.783 35.8841 642.709C40.7975 643.776 45.7456 644.844 50.7294 645.913C54.7165 647.407 56.7103 651.715 56.7103 658.835V671.544C56.7103 673.751 56.0692 675.442 54.788 676.617C53.5064 677.792 51.8683 678.379 49.8754 678.379L0 678.059V673.787H8.4376V611.31H0V607.038ZM24.1365 673.787C25.4892 673.929 26.9667 674.036 28.5862 674.107C30.2243 674.179 31.8435 674.214 33.4816 674.214C35.2438 674.214 36.4182 674.107 36.9703 673.894C38.75 673.111 39.7648 672.541 40.0493 672.185C40.6906 671.402 41.0106 669.657 41.0106 666.951V655.525C41.0106 654.029 40.7975 652.943 40.3695 652.267C39.9423 651.59 38.7145 650.683 36.6678 649.544C32.9833 647.55 30.6157 646.197 29.5475 645.486C27.5723 644.133 25.7566 642.495 24.1365 640.572V673.787ZM111.284 629.021L88.8564 656.29V673.787H95.9055V678.059H64.7199V673.787H73.1575V611.31H64.7199V607.038H95.9055V611.31H88.8564V649.544L111.284 622.096V611.31H104.342V607.038H135.421V611.31H126.983V673.787H135.421V678.059H104.342V673.787H111.284V629.021ZM170.771 673.787V611.417H166.498C162.44 611.417 159.877 611.88 158.809 612.805C156.816 614.496 154.894 618.928 153.042 626.083C152.615 627.917 152.366 628.914 152.295 629.056C151.797 630.462 150.942 631.174 149.731 631.174C148.45 631.174 147.631 630.765 147.275 629.946C146.919 629.128 146.741 628.006 146.741 626.582C146.741 623.735 146.136 620.779 144.926 617.718C144.641 616.864 143.965 615.261 142.896 612.912C142.185 611.346 141.829 610.206 141.829 609.495C141.829 608.497 142.22 607.608 143.003 606.825C143.786 606.041 144.89 605.649 146.314 605.649C148.166 606.006 150.212 606.344 152.455 606.664C154.697 606.984 157.208 607.145 159.984 607.145H163.616H193.732H197.363C200.496 607.145 203.06 606.984 205.053 606.664C207.046 606.344 209.04 606.006 211.033 605.649C212.457 605.649 213.544 606.059 214.291 606.878C215.039 607.697 215.412 608.569 215.412 609.495C215.412 610.277 214.968 611.702 214.078 613.766C213.188 615.831 212.636 617.148 212.422 617.718C211.853 619.142 211.39 620.637 211.033 622.203C210.677 623.769 210.499 625.229 210.499 626.582C210.499 628.006 210.429 628.932 210.286 629.359C209.859 630.569 208.969 631.174 207.616 631.174C206.405 631.174 205.481 630.177 204.84 628.202C204.625 627.632 204.128 625.834 203.344 622.791C202.063 617.967 200.496 614.745 198.645 613.108C197.363 611.986 195.406 611.417 192.771 611.417H190.849H186.47V673.787H195.014V678.059H162.44V673.787H170.771ZM229.189 673.787L229.083 629.039C229.083 619.427 230.827 613.126 234.316 610.135C237.804 607.145 245.209 605.649 256.529 605.649C263.009 605.649 268.242 607.323 272.229 610.687C275.86 613.766 277.676 617.54 277.676 622.043C277.676 626.832 275.575 630.658 271.374 633.524C268.171 635.66 265.109 636.728 262.19 636.728C261.692 636.799 261.158 636.853 260.588 636.888C260.018 636.924 259.626 636.941 259.413 636.941C257.918 636.941 256.281 636.408 254.501 635.34L248.093 638.65C251.154 641.071 254.215 642.922 257.278 644.203C258.274 644.631 259.573 645.041 261.175 645.432C262.777 645.823 264.397 646.197 266.034 646.553C269.167 647.194 270.912 647.586 271.268 647.728C274.187 648.725 276.073 650.149 276.928 652C277.426 653.068 277.676 654.635 277.676 656.699V669.195V672.612C277.676 674.179 276.715 675.549 274.792 676.724C272.87 677.898 270.894 678.486 268.9 678.486L220.752 678.059V673.787H229.189ZM244.889 673.787H257.455C259.181 673.787 260.357 673.359 261.015 672.505C261.656 671.651 261.976 669.8 261.976 666.951V655.525C261.976 654.029 261.763 652.943 261.336 652.267C260.909 651.59 259.644 650.683 257.562 649.544C254.056 647.693 251.653 646.34 250.371 645.486C248.288 644.133 246.473 642.495 244.889 640.572V673.787ZM244.889 637.048L251.759 632.029C252.346 632.385 252.988 632.563 253.699 632.563C254.696 632.563 255.693 632.385 256.654 632.029C257.633 631.673 258.256 631.353 258.541 631.067C259.965 629.483 260.766 628.594 260.909 628.379C261.62 626.867 261.976 624.197 261.976 620.334C261.976 616.757 261.211 614.123 259.68 612.449C258.15 610.758 256.209 609.922 253.86 609.922C250.157 609.922 247.63 612.236 246.277 616.864C245.352 619.925 244.889 624.553 244.889 630.747C244.889 631.887 244.889 632.972 244.889 634.005C244.889 635.037 244.889 636.051 244.889 637.048ZM311.851 609.922H304.055V605.649H335.56V609.922H327.657L346.24 673.787H353.288V678.059H322.851V673.787H330.54L322.958 647.515C321.25 655.329 318.366 662.306 314.307 668.483C309.466 675.798 304.339 679.447 298.928 679.447C295.653 679.447 293.019 678.522 291.025 676.67C288.675 674.463 287.501 671.313 287.501 667.183C287.501 661.79 289.032 655.702 292.093 648.956C294.443 643.83 298.11 637.475 303.094 629.857C305.158 626.814 307.223 623.751 309.288 620.69C311.139 617.557 312.065 614.727 312.065 612.164C312.065 611.666 311.993 610.918 311.851 609.922ZM296.793 660.134C296.793 662.342 297.326 663.997 298.394 665.136C299.463 666.275 300.78 666.845 302.346 666.845C304.268 666.845 305.835 666.097 307.045 664.602C309.324 661.701 311.709 658.105 314.2 653.851C317.618 648.013 319.541 643.438 319.968 640.11L315.376 621.776C313.097 624.909 310.819 627.988 308.54 631.05C306.618 633.738 305.087 636.158 303.948 638.294C302.524 640.84 301.029 644.328 299.463 648.725C297.683 653.78 296.793 657.571 296.793 660.134ZM401.241 645.592L401.027 639.718C408.645 639.718 413.629 638.846 415.979 637.102C418.329 635.357 419.503 632.029 419.503 627.116V623.805C419.503 619.818 419.04 616.757 418.115 614.621C416.762 611.487 414.27 609.922 410.639 609.922C407.934 609.922 405.727 610.598 404.017 611.95C401.668 613.801 400.493 616.792 400.493 620.922C400.493 621.848 400.529 622.613 400.6 623.218C400.672 623.823 400.743 624.375 400.814 624.873C400.814 625.656 400.351 626.048 399.426 626.048H397.61C395.332 626.048 393.481 626.101 392.056 626.208C390.632 626.315 388.176 626.653 384.687 627.223C384.046 627.366 383.655 627.366 383.513 627.223C383.37 627.08 383.299 626.404 383.299 625.193C383.299 617.789 386.859 612.413 393.979 609.067C398.892 606.789 404.658 605.649 411.28 605.649C418.613 605.649 424.79 607.305 429.81 610.615C434.829 613.926 437.339 618.43 437.339 624.126C437.339 629.466 435.132 633.667 430.717 636.728C428.581 638.223 425.128 639.682 420.358 641.106L419.397 641.427V643.243C420.75 643.385 421.871 643.599 422.76 643.883C423.651 644.168 424.452 644.417 425.164 644.631C429.151 645.842 432.177 647.301 434.242 649.01C437.873 652.071 439.688 656.272 439.688 661.612C439.688 667.45 437.712 672.167 433.761 675.763C429.81 679.358 425.057 681.156 419.503 681.156C417.652 681.156 415.766 680.943 413.843 680.516C410.496 679.874 407.31 679.109 404.285 678.219C401.259 677.329 399.39 676.884 398.678 676.884C397.539 676.884 396.578 677.4 395.795 678.432C395.011 679.465 394.619 681.049 394.619 683.185C394.619 683.754 394.691 684.431 394.833 685.214C394.975 685.998 395.046 686.531 395.046 686.816C395.046 687.742 394.726 688.205 394.085 688.205H391.736C391.095 688.062 390.401 687.955 389.653 687.884C388.906 687.813 388.354 687.778 387.998 687.778C386.93 687.778 385.897 688.062 384.901 688.614C384.26 688.97 383.797 689.13 383.513 689.148C382.729 689.131 382.053 688.65 381.483 687.653C380.914 686.656 380.629 684.84 380.629 682.206C380.629 678.361 381.644 675.3 383.673 672.986C385.72 670.672 388.158 669.515 391.024 669.515C392.59 669.515 394.619 669.96 397.112 670.85C399.621 671.74 402.167 672.612 404.766 673.466C407.382 674.321 409.322 674.855 410.604 675.069C411.903 675.282 412.971 675.389 413.825 675.389C417.03 675.389 419.29 673.822 420.571 670.69C421.497 668.483 421.96 665.457 421.96 661.612C421.96 660.971 421.96 660.295 421.96 659.583C421.96 658.871 421.96 658.123 421.96 657.34C421.96 656.77 421.924 656.308 421.853 655.952C421.568 652.534 420.358 649.953 418.222 648.209C416.086 646.465 413.38 645.592 410.105 645.592H401.241ZM471.62 609.922H463.825V605.649H495.33V609.922H487.427L506.01 673.787H513.058V678.059H482.621V673.787H490.31L482.728 647.515C481.019 655.329 478.135 662.306 474.077 668.483C469.236 675.798 464.109 679.447 458.698 679.447C455.423 679.447 452.789 678.522 450.795 676.67C448.445 674.463 447.271 671.313 447.271 667.183C447.271 661.79 448.802 655.702 451.863 648.956C454.213 643.83 457.88 637.475 462.863 629.857C464.928 626.814 466.993 623.751 469.057 620.69C470.909 617.557 471.834 614.727 471.834 612.164C471.834 611.666 471.763 610.918 471.62 609.922ZM456.562 660.134C456.562 662.342 457.096 663.997 458.164 665.136C459.232 666.275 460.549 666.845 462.115 666.845C464.038 666.845 465.605 666.097 466.815 664.602C469.093 661.701 471.478 658.105 473.97 653.851C477.388 648.013 479.311 643.438 479.738 640.11L475.145 621.776C472.867 624.909 470.589 627.988 468.31 631.05C466.388 633.738 464.856 636.158 463.718 638.294C462.294 640.84 460.798 644.328 459.232 648.725C457.452 653.78 456.562 657.571 456.562 660.134ZM567.098 641V673.787H574.147V678.059H542.961V673.787H551.399V611.31H542.961V607.038H574.147V611.31H567.098V636.087H589.526V611.31H582.691V607.038H613.662V611.31H605.225V673.787H613.662V678.059H582.691V673.787H589.526V641H567.098ZM668.129 629.021L645.701 656.29V673.787H652.75V678.059H621.565V673.787H630.002V611.31H621.565V607.038H652.75V611.31H645.701V649.544L668.129 622.096V611.31H661.187V607.038H692.266V611.31H683.828V673.787H692.266V678.059H661.187V673.787H668.129V629.021ZM733.276 607.038H760.082V611.31H754.529V637.902H755.276C757.821 632.847 759.317 629.857 759.78 628.932C760.242 628.006 760.901 626.582 761.738 624.66C764.781 618.323 767.095 614.158 768.644 612.164C771.972 607.822 775.889 605.649 780.428 605.649C782.118 605.649 783.614 605.774 784.877 606.024C786.159 606.273 787.565 606.753 789.132 607.465L788.276 610.242C787.654 611.809 787.245 612.983 787.066 613.766C786.871 614.55 786.782 616.044 786.782 618.252L786.568 621.349H784.539L781.228 620.068C780.517 619.711 779.751 619.409 778.932 619.16C778.114 618.91 777.099 618.785 775.889 618.785C773.254 618.785 770.798 620.192 768.519 623.004C766.241 625.817 763.18 631.317 759.335 639.505C766.668 640.572 772.685 643.064 777.383 646.98C784.645 653.032 788.276 661.968 788.276 673.787H794.364V678.059H765.635V673.787H770.335C770.335 662.965 768.662 654.848 765.315 649.437C762.539 644.951 758.943 642.53 754.529 642.175V673.787H759.762V678.059H733.703V673.787H738.829V642.175C734.415 642.175 730.82 644.489 728.043 649.117C724.696 654.67 723.023 662.893 723.023 673.787H727.723V678.059H698.887V673.787H705.081C705.081 662.039 708.713 653.139 715.975 647.087C720.745 643.1 726.761 640.572 734.024 639.505C730.321 631.53 727.278 626.083 724.892 623.165C722.507 620.245 720.033 618.785 717.47 618.785C716.188 618.785 715.28 618.857 714.746 619C714.212 619.142 713.34 619.498 712.13 620.068L708.926 621.349H706.896L706.683 618.252C706.683 615.76 706.576 614.123 706.381 613.339C705.847 612.2 705.42 611.167 705.081 610.242L704.013 607.465C705.366 606.825 706.826 606.362 708.392 606.076C709.958 605.792 711.453 605.649 712.877 605.649C717.363 605.649 721.279 607.786 724.625 612.057C726.049 613.837 728.399 618.038 731.674 624.66C732.457 626.369 733.116 627.793 733.65 628.932C734.183 630.071 735.697 633.061 738.189 637.902H738.829V611.31H733.276V607.038ZM825.229 641V673.787H832.278V678.059H801.093V673.787H809.53V611.31H801.093V607.038H832.278V611.31H825.229V636.087H847.657V611.31H840.822V607.038H871.793V611.31H863.356V673.787H871.793V678.059H840.822V673.787H847.657V641H825.229ZM926.26 629.021L903.832 656.29V673.787H910.882V678.059H879.696V673.787H888.134V611.31H879.696V607.038H910.882V611.31H903.832V649.544L926.26 622.096V611.31H919.318V607.038H950.397V611.31H941.959V673.787H950.397V678.059H919.318V673.787H926.26V629.021ZM1004.86 629.021L982.436 656.29V673.787H989.485V678.059H958.299V673.787H966.737V611.31H958.299V607.038H988.31V611.31H982.436V649.544L1004.86 622.096V611.31H998.99V607.038H1029V611.31H1020.56V673.787H1029V678.059H997.922V673.787H1004.86V629.021ZM1005.61 587.494L1010.1 589.203C1008.46 593.403 1006.15 596.945 1003.16 599.829C1000.16 602.713 997.032 604.155 993.756 604.155C989.983 604.155 986.744 602.445 984.038 599.028C981.688 596.037 980.157 592.229 979.446 587.601L983.397 586.532C984.251 588.811 985.32 590.626 986.601 591.979C988.381 593.902 990.517 594.863 993.009 594.863C996.284 594.863 999.097 594.044 1001.45 592.406C1003.23 591.125 1004.61 589.488 1005.61 587.494Z" fill="#001E48"/>
</svg>
