<svg width="1854" height="1393" viewBox="0 0 1854 1393" fill="none" xmlns="http://www.w3.org/2000/svg">
<path d="M1572.79 488.634L1563.02 609.879H1593.11L1635.59 690.879L1623.13 822.292L1725.88 952.238L1726.39 945.574L1724.02 937.125L1723.35 929.352L1718.27 923.607L1716.24 919.551L1718.27 917.186L1716.24 915.158L1716.58 914.144L1717.93 913.806L1722.33 915.158L1735.87 912.117L1733.84 900.964L1740.27 897.246H1743.99L1753.13 890.825L1745.69 881.025L1738.92 875.279L1737.9 872.238L1736.21 866.493L1733.84 857.368L1724.02 827.965L1747.72 819.854L1771.07 846.215L1772.42 848.919H1774.12L1780.21 845.877L1780.55 844.525L1778.52 841.146V818.165L1782.24 814.447L1782.58 812.757L1781.9 812.419H1779.87L1778.85 811.744L1777.16 804.646L1779.53 802.957L1779.19 802.619L1777.5 802.281L1774.12 800.591L1771.41 799.915L1769.72 801.605L1767.68 799.577H1767.01L1766.67 800.929H1763.28L1761.59 803.633H1758.89L1757.53 804.646L1756.85 803.971V789.438L1758.55 781.327H1761.59L1762.95 774.23L1768.7 771.865L1773.1 772.203V763.754L1780.88 764.43L1784.95 761.05H1788.33V764.43H1790.7L1791.04 767.471H1794.08L1794.76 771.527L1802.21 771.189L1801.19 758.008L1824.54 756.657L1822.51 752.263L1830.97 748.546L1851.96 729.282L1786.72 591.396L1773.86 555.235L1769.13 543.068L1742.98 511.007L1732.49 502.896L1706.09 488.364L1693.9 485.323L1685.44 483.971L1613.35 485.998L1606.58 487.012L1589.66 488.364L1573.49 488.693L1572.79 488.634Z" fill="#F1E0C3" stroke="#9F835A" stroke-width="3" stroke-linejoin="round"/>
<path d="M421.137 381.758L335.063 635.368H474.213L451.798 645.131L426.753 648.172L389.185 656.283L391.216 660.677L368.878 666.422H269.374L273.097 547.461L2.6769 543.744L2 381.525L421.137 381.758Z" fill="#F1E0C3"/>
<path d="M493.274 637.662L489.804 635.368H500.462L493.274 637.662Z" fill="#F1E0C3"/>
<path d="M421.137 381.758L335.063 635.368H474.213L451.798 645.131L426.753 648.172L389.185 656.283L391.216 660.677L368.878 666.422H269.374L273.097 547.461L2.6769 543.744L2 381.525L421.137 381.758Z" stroke="#9F835A" stroke-width="3" stroke-linejoin="round"/>
<path d="M493.274 637.662L489.804 635.368H500.462L493.274 637.662Z" stroke="#9F835A" stroke-width="3" stroke-linejoin="round"/>
<path d="M493.273 637.662L532.687 663.718L581.423 662.704L652.497 660.677V668.45L621.022 669.801L620.006 676.561L620.684 680.954L621.361 684.334L622.714 686.699L624.745 688.389L628.468 690.417L629.822 691.769L630.499 693.796L630.16 698.528L632.868 703.259L652.498 691.431L662.651 688.727L670.097 682.306L672.128 681.63H687.02L687.493 683.047L695.314 677.284L870.342 662.557L965.503 655.76L1140.53 643.864L1196.04 622.34L1205.67 573.06L1192.64 488.662V383.196L1186.91 377.807H1177.31L1172.51 373.848L1145.06 457.508H1090.69L1075.96 510.753L1039.71 457.508L1019.88 532.277L968.902 519.815L924.154 477.333L889.601 490.361L864.112 519.815H821.629L814.832 500.096L749.126 541.34L731 593.452L652.832 635.368H535.58L512.356 643.864L500.461 635.368L493.273 637.662Z" fill="#F1E0C3" stroke="#9F835A" stroke-width="3" stroke-linejoin="round"/>
<path fill-rule="evenodd" clip-rule="evenodd" d="M1430.68 506.836L1426.53 508.259L1417.05 507.245L1412.85 490.612L1398.44 501.5L1387.61 494.403L1389.8 489.332L1368.68 459.258L1321.27 429.366L1312.47 425.31L1282.35 417.875L1268.2 408.572L1253.47 407.819L1251.89 397.081L1241.06 387.619V382.549L1231.24 385.042L1212.29 382.239L1224.48 398.771L1221.43 401.137L1194.59 385.031L1192.64 383.196V488.662L1205.67 573.06L1196.04 622.34L1140.53 643.865L1143.36 702.826L1185.28 714.102L1219.83 762.249H1239.09L1249.85 731.662L1239.09 690.879H1261.18L1277.61 669.921L1279.87 714.102L1319.52 715.802L1327.45 622.34L1356.91 546.438L1430.68 506.836ZM1253.47 407.819L1248.17 407.548V413.641L1253.58 408.572L1253.47 407.819Z" fill="#F1E0C3"/>
<path d="M1253.47 407.819L1268.2 408.572L1282.35 417.875L1312.47 425.31L1321.27 429.366L1368.68 459.258L1389.8 489.332L1387.61 494.403L1398.44 501.5L1412.85 490.612L1417.05 507.245L1426.53 508.259L1430.68 506.836L1356.91 546.438L1327.45 622.34L1319.52 715.802L1279.87 714.102L1277.61 669.921L1261.18 690.879H1239.09L1249.85 731.662L1239.09 762.249H1219.83L1185.28 714.102L1143.36 702.826L1140.53 643.865L1196.04 622.34L1205.67 573.06L1192.64 488.662V383.196L1194.59 385.031L1221.43 401.137L1224.48 398.771L1212.29 382.239L1231.24 385.042L1241.06 382.549V387.619L1251.89 397.081L1253.47 407.819ZM1253.47 407.819L1248.17 407.548V413.641L1253.58 408.572L1253.47 407.819Z" stroke="#9F835A" stroke-width="3" stroke-linejoin="round"/>
<path d="M1572.79 488.633L1558.13 487.412L1539.57 488.692L1513.33 489.972C1513.33 489.972 1502.55 493.063 1494.77 492.531C1487.42 492.029 1474.59 495.028 1474.59 495.028L1460.37 499.422L1445.82 502.801L1442.44 502.802L1430.68 506.836L1356.91 546.438L1327.45 622.34L1319.52 715.802L1342.5 752.5L1363 677.5L1414.68 690.879L1492.29 662.557L1540.43 609.879L1560.82 637.067L1572.79 488.633Z" fill="#F1E0C3" stroke="#9F835A" stroke-width="3" stroke-linejoin="round"/>
<path d="M970.536 1291.59L978.424 1286.17L995.684 1272.99L1046.79 1224.73L1084.36 1202.08L1109.74 1187.21L1133.43 1172.34L1144.3 1164.93L1249.85 1043.2L1219.83 1014.31L1170.55 1031.87L1143.36 990.522L1053.87 852.312L953.608 901.592L934.916 863.074L930.951 855.711L854.482 898.76L970.536 1291.59Z" fill="#F1E0C3" stroke="#9F835A" stroke-width="3" stroke-linejoin="round"/>
<path d="M1414.82 1155.36L1249.85 1043.2L1144.29 1164.93L1153.74 1158.49L1163.89 1171.67L1144.94 1187.55L1141.55 1205.46L1153.74 1213.23L1158.14 1204.45L1156.78 1203.1L1154.42 1204.45L1150.69 1201.07L1154.42 1191.27L1156.45 1193.63L1158.14 1193.29L1159.15 1189.91L1164.23 1187.89L1173.03 1188.23L1181.15 1175.72L1189.95 1190.59L1191.98 1187.89L1190.29 1183.49L1192.32 1181.8L1197.74 1180.79H1206.54L1207.21 1178.09H1210.94L1212.97 1174.71L1216.01 1181.13H1217.71L1221.43 1190.59L1219.06 1195.66L1218.38 1205.12L1212.63 1203.1L1211.95 1208.5L1207.55 1210.53L1207.21 1217.63H1222.78L1236.32 1212.9H1238.35L1231.24 1240.27L1224.81 1267.98L1224.47 1279.81L1225.49 1283.87L1234.97 1295.7L1238.69 1300.09L1244.44 1305.16L1260.01 1315.3L1264.07 1315.97L1271.52 1297.39L1275.92 1308.2L1309.43 1309.21L1318.22 1304.82L1311.46 1294.34V1284.88L1319.24 1272.38L1332.44 1259.2L1340.56 1254.8L1348.69 1251.76L1362.22 1248.38L1368.32 1233.17L1380.16 1240.27L1381.85 1238.58L1405.88 1218.98L1396.41 1207.49L1401.14 1199.72L1400.81 1193.63L1394.38 1186.87L1410.62 1161.19L1414.82 1155.36Z" fill="#F1E0C3"/>
<path d="M1788.33 761.049L1784.95 761.049L1780.88 764.429M1249.85 1043.2L1414.82 1155.36L1410.62 1161.19L1394.38 1186.87L1400.81 1193.63L1401.14 1199.72L1396.41 1207.49L1405.88 1218.98L1381.85 1238.58L1380.16 1240.27L1368.32 1233.17L1362.22 1248.38L1348.69 1251.76L1340.56 1254.8L1332.44 1259.2L1319.24 1272.38L1311.46 1284.88V1294.34L1318.22 1304.82L1309.43 1309.21L1275.92 1308.2L1271.52 1297.39L1264.07 1315.97L1260.01 1315.3L1244.44 1305.16L1238.69 1300.09L1234.97 1295.7L1225.49 1283.87L1224.47 1279.81L1224.81 1267.98L1231.24 1240.27L1238.35 1212.9H1236.32L1222.78 1217.63H1207.21L1207.55 1210.53L1211.95 1208.5L1212.63 1203.1L1218.38 1205.12L1219.06 1195.66L1221.43 1190.59L1217.71 1181.13H1216.01L1212.97 1174.71L1210.94 1178.09H1207.21L1206.54 1180.79H1197.74L1192.32 1181.8L1190.29 1183.49L1191.98 1187.89L1189.95 1190.59L1181.15 1175.72L1173.03 1188.23L1164.23 1187.89L1159.15 1189.91L1158.14 1193.29L1156.45 1193.63L1154.42 1191.27L1150.69 1201.07L1154.42 1204.45L1156.78 1203.1L1158.14 1204.45L1153.74 1213.23L1141.55 1205.46L1144.94 1187.55L1163.89 1171.67L1153.74 1158.49L1144.29 1164.93L1249.85 1043.2Z" stroke="#9F835A" stroke-width="3" stroke-linejoin="round"/>
<path d="M1284.97 1031.87L1249.85 1043.2L1219.83 1014.31L1170.55 1031.87L1143.36 990.522L1053.87 852.312L953.609 901.592L930.951 855.711L1143.36 702.826L1185.28 714.102L1219.83 762.249H1239.09L1249.85 731.662L1239.09 690.878H1261.18L1277.61 669.92L1279.87 714.102L1319.52 715.802L1342.5 752.5L1331.42 863.074L1321.79 990.522L1301.4 1014.31L1284.97 1031.87Z" fill="#F1E0C3" stroke="#9F835A" stroke-width="3" stroke-linejoin="round"/>
<path d="M1592.05 1017.55L1594.74 1017.9L1607.94 1020.94L1619.44 1024.99L1653.97 1039.19H1658.37L1667.84 1028.04L1677.66 1019.92L1683.75 1028.71L1688.15 1040.54L1688.49 1042.91L1708.8 1043.58L1718.61 1039.86L1719.63 1038.17L1719.29 1034.12L1717.93 1033.1L1709.81 1032.09L1706.76 1027.02L1705.41 1021.28L1708.12 1015.87L1709.81 1011.48V1008.43L1705.75 1002.01V1000.32L1703.38 998.633L1701.35 997.957L1704.06 984.777L1712.52 982.073H1717.26L1718.95 973.286L1725.72 954.361L1725.88 952.238L1623.13 822.292L1635.59 690.879L1573.29 750.354L1518.34 863.075L1496.82 925.382L1522.87 962.767L1576.12 952.005L1562.52 990.522L1592.05 1017.55Z" fill="#F1E0C3" stroke="#9F835A" stroke-width="3" stroke-linejoin="round"/>
<path d="M1592.05 1017.55L1562.52 990.522L1576.12 952.004L1522.87 962.767L1496.82 925.382L1518.34 863.074L1466.8 904.99L1424 886.5L1415 853.5L1361.44 838.718L1331.42 863.074L1321.79 990.522L1301.4 1014.31L1284.97 1031.87L1249.85 1043.2L1414.82 1155.36L1416.71 1152.74L1423.48 1145.31L1432.62 1139.9L1447.85 1135.17V1124.69L1453.94 1124.01L1482.03 1127.39L1486.77 1126.38L1490.16 1128.07L1493.2 1130.77L1494.22 1133.48L1495.57 1134.83L1496.92 1135.84L1499.63 1136.18L1521.29 1135.5L1528.74 1137.19L1533.14 1138.55H1538.55L1539.57 1139.9L1542.95 1141.93H1549.38L1556.15 1138.21L1560.55 1132.8H1563.26L1570.03 1135.84L1573.75 1133.48L1589.66 1131.79L1592.71 1130.77L1597.11 1127.39H1599.14L1605.91 1121.31L1608.61 1120.63V1116.24L1612.34 1115.56L1614.03 1114.21L1613.69 1112.86L1615.38 1112.19L1622.15 1113.88L1623.5 1111.51L1625.54 1096.64L1617.75 1095.63L1600.49 1090.22L1589.32 1088.53L1586.28 1085.82L1584.58 1086.16V1083.46L1584.92 1079.4L1550.74 1070.28L1553.78 1059.8L1555.14 1059.46L1557.17 1062.84L1559.2 1063.18L1562.25 1066.22V1067.24L1564.28 1069.27L1567.66 1070.95L1572.06 1071.29L1573.08 1070.62L1574.43 1070.95L1575.78 1069.6L1579.17 1070.62L1581.54 1069.6L1585.6 1070.28L1586.61 1071.97L1587.97 1071.29L1590.34 1068.59L1594.74 1072.31H1595.75L1596.43 1071.29L1597.11 1069.6L1597.44 1066.9L1596.77 1049.33L1592.37 1041.55H1591.35L1585.26 1047.64L1581.2 1047.97L1580.18 1038.85L1580.86 1024.99L1573.75 1015.87L1575.11 1015.87L1586.95 1016.88L1592.05 1017.55Z" fill="#F1E0C3" stroke="#9F835A" stroke-width="3" stroke-linejoin="round"/>
<path d="M1172.51 373.848L1168.99 370.953L1145.31 361.248L1131.23 351.785L1108.73 357.53L1116.85 338.319L1108.73 327.452L1103.71 290.328L1091.55 276.758L1095.87 255.134C1095.87 255.134 1083.14 249.134 1079.96 242.336C1078.28 238.754 1079.96 228.899 1079.96 228.899L1071.5 204.583L1049.95 173.869L1026.82 146.354L999.746 95.9519L993.992 88.8548L985.87 74.3227L980.454 62.1562L973.009 52.3555L968.906 47.7197L889.602 490.361L924.154 477.333L968.902 519.816L1019.88 532.277L1039.71 457.508L1075.96 510.753L1090.69 457.508H1145.06L1172.51 373.848Z" fill="#F1E0C3" stroke="#9F835A" stroke-width="3" stroke-linejoin="round"/>
<path d="M687.492 683.047L690.403 691.768L691.757 700.217L697.511 730.295L702.588 753.276L711.049 771.864L710.71 784.03L726.279 848.242L717.676 849.505L719.104 851.745L854.482 898.759L989.859 822.291L1143.36 702.825L1140.53 643.864L965.503 655.759L870.342 662.556L695.314 677.284L687.492 683.047Z" fill="#F1E0C3" stroke="#9F835A" stroke-width="3" stroke-linejoin="round"/>
<path d="M489.805 635.368H500.463L512.358 643.865L535.582 635.368H652.834L731.002 593.452L749.128 541.34L814.834 500.096L821.631 519.815H864.114L889.603 490.361L968.907 47.7196L960.149 37.8232L944.58 23.6291L901.259 23.6292L894.828 21.2634L889.075 19.9116L875.875 13.4905L861.322 8.08317L843.384 3.68978L829.846 2.33798L819.693 2L802.432 2.67585L791.601 4.02776L772.648 7.74519L763.849 11.4627L769.264 34.7816L784.833 49.3138L789.232 56.4109L797.017 62.832L800.063 66.8874L804.463 70.605L807.847 78.378L813.601 85.813L827.815 98.3175L830.523 102.035L833.569 105.415L841.015 111.836L837.969 115.553L831.2 112.512L830.862 108.794L826.123 106.428L822.062 105.752L816.308 106.428L811.232 104.739L803.447 107.442L793.294 116.567L763.849 122.988L711.051 128.058L690.067 126.368L670.437 125.692L661.299 126.03L650.13 126.706L607.824 163.543L581.425 276.758L608.839 381.863L421.138 381.758L335.064 635.368H474.215L483.614 631.274L489.805 635.368Z" fill="#F1E0C3" stroke="#9F835A" stroke-width="3" stroke-linejoin="round"/>
<path d="M1564.81 609.878L1562.62 637.067L1542.23 609.878L1494.08 662.557L1416.48 690.878L1363.23 677.284L1342.84 750.354L1331.5 863L1363.23 838.717L1414.78 853.445L1424.41 887.431L1468.59 904.99L1520.13 863.074L1575.08 750.354L1637.39 690.878L1594.9 609.878H1564.81Z" fill="#F1E0C3" stroke="#9F835A" stroke-width="3" stroke-linejoin="round"/>
<path d="M717.675 849.506L703.264 851.622L667.05 856.692L640.312 886.432L628.128 914.82L627.451 928.338L684.988 921.579L685.326 929.014L697.172 927.662L698.526 928L699.202 929.014L703.264 938.477L680.926 939.829L674.496 973.286H659.266V971.259H648.097L649.789 1002.01L646.743 1003.03V1004.38L633.205 1006.74V1010.46L632.528 1010.8L634.22 1019.59L634.897 1032.09V1033.78L636.251 1035.47L636.59 1038.17L635.913 1040.2L634.22 1040.54L633.882 1041.55L632.867 1042.57L634.559 1050.68L634.897 1053.72L633.543 1054.73V1056.09L634.559 1057.44L632.867 1059.8L631.513 1061.83V1063.52L629.482 1065.55L628.467 1069.94L626.098 1071.63L624.067 1075.35L622.713 1075.69L621.698 1077.38L620.006 1077.71L618.313 1078.39V1080.08L611.544 1086.5L609.852 1087.52L607.483 1089.88L612.56 1095.29L606.806 1102.39L596.653 1109.14L603.083 1119.62L567.884 1133.48L572.284 1138.21L567.208 1144.29L563.485 1143.95L559.423 1139.56L559.085 1134.83L552.316 1134.49L552.993 1140.57L545.547 1143.95L547.578 1151.73L544.532 1170.65L542.839 1174.03L539.793 1190.59L544.532 1190.25L550.285 1187.89L553.67 1203.1L523.886 1309.22L520.84 1316.99L517.117 1337.27L567.208 1370.99L700.556 1390.32L709.017 1391H807.373L859.627 1379.44L864.027 1377.42L867.411 1375.05L872.827 1370.99L888.395 1356.12L902.61 1341.93L927.317 1320.64L944.239 1310.5L963.192 1296.64L970.535 1291.59L854.481 898.76L719.104 851.746L717.675 849.506Z" fill="#F1E0C3" stroke="#9F835A" stroke-width="3" stroke-linejoin="round"/>
</svg>
