<svg  viewBox="0 0 38 567" fill="none" xmlns="http://www.w3.org/2000/svg">
<path d="M36.6603 545.801C36.7068 557.739 28.4636 565.11 18.2857 566.725C8.10566 568.277 -0.093274 563.293 0.000800849 551.123C0.819804 431.935 1.19166 140.11 1.11639 20.9229C1.10643 8.79999 8.97114 -0.265808 18.6543 0.00591959C28.3363 0.239867 36.2065 9.52612 36.2021 21.4152C36.1689 138.664 36.3227 428.552 36.6603 545.801Z" fill="#EA6237"/>
<g opacity="0.35">
<g opacity="0.35">
<path opacity="0.5" d="M0.743296 522.987C0.708987 531.65 0.681314 540.313 0.642577 548.976C12.101 560.209 9.24362 556.516 21.5 566.408C27 564.633 34 561.082 36.4378 549.507C24.561 540.624 12.6201 531.869 0.743296 522.987Z" fill="black"/>
</g>
<g opacity="0.35">
<path opacity="0.5" d="M1.01837 420.414C1.00398 427.948 0.995116 435.482 0.978514 443.016C12.8132 452.053 24.536 461.308 36.3176 470.451C36.3065 462.413 36.2999 454.375 36.2888 446.336C24.7209 437.335 12.7966 429.017 1.01837 420.414Z" fill="black"/>
</g>
<g opacity="0.35">
<path opacity="0.5" d="M1.08247 369.779C1.07472 377.117 1.08027 384.453 1.07031 391.791C12.6715 400.614 24.566 408.867 36.2557 417.512C36.2479 410.708 36.2513 403.906 36.2446 397.102C24.7375 387.618 13.1717 378.06 1.08247 369.779Z" fill="black"/>
</g>
<g opacity="0.35">
<path opacity="0.5" d="M1.11312 315.004C1.11644 324.133 1.10098 333.261 1.09766 342.389C13.2456 349.917 24.8103 358.724 36.2289 367.866C36.2233 358.508 36.22 349.151 36.2145 339.793C24.8003 330.898 13.0851 322.58 1.11312 315.004Z" fill="black"/>
</g>
<g opacity="0.35">
<path opacity="0.5" d="M0.906953 471.88C0.884818 479.359 0.877017 486.837 0.851561 494.314C12.6409 503.256 24.5265 512.005 36.3878 520.805C36.3756 513.67 36.3689 506.535 36.3578 499.4C24.4844 490.336 12.725 481.05 0.906953 471.88Z" fill="black"/>
<path opacity="0.5" d="M37.1937 290.913C24.6307 282.815 12.0169 274.865 0.778728 264.633C0.741098 270.771 0.715624 276.908 0.67578 283.045C11.4978 292.768 22.5212 302.087 33.9032 310.69C35.9961 307.508 37.2269 303.585 37.2091 298.97C37.2025 296.283 37.2003 293.598 37.1937 290.913Z" fill="black"/>
<path opacity="0.5" d="M1.04998 212.054C1.01678 218.626 0.992446 225.197 0.95703 231.77C10.4631 244.974 24.125 253.862 36.533 262.05C36.7334 262.183 36.9359 262.311 37.1362 262.442C37.1185 255.653 37.1129 248.866 37.0963 242.077C24.9595 232.271 12.8006 222.519 1.04998 212.054Z" fill="black"/>
<path opacity="0.5" d="M1.04998 58.2335C1.01678 64.8061 0.992446 71.3773 0.95703 77.9498C10.4631 91.1544 24.125 100.042 36.533 108.23C36.7334 108.363 36.9359 108.491 37.1362 108.622C37.1185 101.833 37.1129 95.0458 37.0963 88.2569C24.9595 78.4515 12.8006 68.6987 1.04998 58.2335Z" fill="black"/>
<path opacity="0.5" d="M1.29408 157.184C1.25977 165.847 1.23209 174.51 1.19336 183.173C12.6517 194.406 24.7841 204.508 37.0405 214.4C37.0183 204.169 37.0084 193.936 36.9885 183.705C25.1117 174.821 13.1708 166.066 1.29408 157.184Z" fill="black"/>
<path opacity="0.5" d="M1.56915 106.019C1.55476 113.553 1.5459 121.087 1.5293 128.621C13.364 137.658 25.0868 146.913 36.8684 156.056C36.8573 148.018 36.8506 139.98 36.8396 131.942C25.2716 122.941 13.3474 114.623 1.56915 106.019Z" fill="black"/>
<path opacity="0.5" d="M1.56915 15.4197C1.55476 22.9536 1.5459 30.4875 1.5293 38.0214C13.364 47.0588 25.0868 56.3139 36.8684 65.4568C36.8573 57.4186 36.8506 49.3804 36.8396 41.3422C25.2716 32.3413 13.3474 24.0231 1.56915 15.4197Z" fill="black"/>
<path opacity="0.5" d="M35.9167 18.9715C34.8486 8.38321 27.4632 0.430103 18.516 0.213768C15.8852 0.139402 13.3983 0.774954 11.1582 1.95399C19.5475 7.28396 27.804 12.9695 35.9167 18.9715Z" fill="black"/>
</g>
</g>
</svg>
