<svg viewBox="0 0 100 100" fill="none" xmlns="http://www.w3.org/2000/svg">
<g clip-path="url(#clip0)">
<path d="M7.32422 98.5352H1.46484V4.39453C1.46484 2.77656 2.77656 1.46484 4.39453 1.46484C6.0125 1.46484 7.32422 2.77656 7.32422 4.39453V98.5352Z" fill="#E7C58C"/>
<path d="M1.46484 8.20312H55.3711V53.5156H1.46484V8.20312Z" fill="#901819"/>
<path d="M55.3711 14.0625V47.6562H1.46484V14.0625H55.3711Z" fill="#B01D1D"/>
<path d="M97.7533 63.8672H42.2852V18.5547H97.7117C98.2557 18.5547 98.6332 19.0967 98.4445 19.607L91.0285 39.6586C90.9672 39.8244 90.9639 40.0063 91.0193 40.1742L98.4955 62.8412C98.6619 63.3467 98.2855 63.8672 97.7533 63.8672Z" fill="#901819"/>
<path d="M42.2852 58.0078V24.4141H90.4191L85.5326 37.6262C85.0127 39.0311 84.9852 40.5896 85.4557 42.0131L90.7313 58.0078H42.2852Z" fill="#B01D1D"/>
<path d="M55.3711 8.20312L42.2852 18.5547H55.3711V8.20312Z" fill="#901819"/>
<path d="M55.7109 41.2577C55.7109 42.5507 55.3066 43.8768 55.0313 44.6307C54.8965 45.0018 54.5254 45.2284 54.1348 45.1815L47.9082 44.4393C47.2559 44.3632 46.7031 44.9159 46.7813 45.5682L47.5234 51.7928C47.5703 52.1835 47.3418 52.5546 46.9727 52.6893C46.2188 52.9647 44.8926 53.371 43.5977 53.371C43.1563 53.371 42.709 53.3241 42.2852 53.2499V29.2655C42.709 29.1913 43.1563 29.1444 43.5977 29.1444C44.8926 29.1444 46.2188 29.5487 46.9727 29.8241C47.3418 29.9589 47.5703 30.33 47.5234 30.7206L46.7813 36.9471C46.7031 37.5995 47.2559 38.1522 47.9082 38.0741L54.1348 37.3319C54.5254 37.285 54.8965 37.5135 55.0313 37.8827C55.3066 38.6366 55.7109 39.9628 55.7109 41.2577Z" fill="#D94646"/>
<path d="M99.8855 62.3824L92.4844 39.9424L99.8174 20.1152C100.36 18.6496 99.2732 17.0896 97.7109 17.0896H56.8354V8.20312C56.8354 7.38711 56.1701 6.73828 55.3772 6.73828C55.375 6.73828 55.3727 6.73828 55.3705 6.73828H24.7146C23.9055 6.73828 23.2498 7.39414 23.2498 8.20312C23.2498 9.01211 23.9055 9.66797 24.7146 9.66797H51.1576L47.4541 12.5977H2.92969V9.66797H18.785C19.5941 9.66797 20.2498 9.01211 20.2498 8.20312C20.2498 7.39414 19.5941 6.73828 18.785 6.73828H8.78906V4.39453C8.78906 1.95742 6.81211 0 4.39453 0C1.97148 0 0 1.97129 0 4.39453V98.5352C0 99.3441 0.655664 100 1.46484 100H7.32422C8.1334 100 8.78906 99.3441 8.78906 98.5352V68.7049C8.78906 67.8959 8.1334 67.24 7.32422 67.24C6.51504 67.24 5.85938 67.8959 5.85938 68.7049V97.0703H2.92969V54.9805H5.85938V62.5752C5.85938 63.3842 6.51504 64.04 7.32422 64.04C8.1334 64.04 8.78906 63.3842 8.78906 62.5752V54.9805H40.8201V63.8672C40.8201 64.6762 41.4758 65.332 42.285 65.332H87.4844C88.2936 65.332 88.9492 64.6762 88.9492 63.8672C88.9492 63.0582 88.2936 62.4023 87.4844 62.4023H43.7496V59.4727H90.7305C91.727 59.4727 92.4338 58.4965 92.1217 57.549L86.8461 41.5533C86.4793 40.4439 86.5006 39.2297 86.9061 38.1342L91.7924 24.9221C92.1457 23.967 91.4381 22.949 90.4186 22.949H43.7496V20.0193H96.7291L89.6537 39.15C89.4779 39.6256 89.4686 40.1525 89.6271 40.633L96.8072 62.4023H93.8244C93.0152 62.4023 92.3596 63.0582 92.3596 63.8672C92.3596 64.6762 93.0152 65.332 93.8244 65.332H97.7525C99.2801 65.332 100.364 63.8338 99.8855 62.3824ZM43.7506 15.5273L41.3807 17.402C41.3803 17.4021 41.3801 17.4025 41.3797 17.4027L41.3758 17.4059C40.8344 17.8344 40.818 18.4627 40.824 18.4432C40.8162 18.5449 40.8209 17.2373 40.8199 46.1916H2.92969V15.5275H43.7506V15.5273ZM46.0348 38.8205C46.5756 39.3615 47.3209 39.6199 48.0811 39.5287L53.8119 38.8455C54.3867 40.6498 54.3844 41.8705 53.8119 43.6678L48.0777 42.9844C47.3178 42.8957 46.5727 43.1553 46.0324 43.6967C45.4928 44.2379 45.2355 44.9832 45.3262 45.7416L46.0094 51.4707C45.4025 51.6643 44.5594 51.8791 43.7496 51.9037V30.6117C44.5619 30.6363 45.4037 30.8502 46.0094 31.043L45.3262 36.7732C45.2354 37.5334 45.4938 38.2795 46.0348 38.8205ZM4.39453 2.92969C5.19355 2.92969 5.85938 3.57949 5.85938 4.39453V6.73828H2.92969V4.39453C2.92969 3.58672 3.58672 2.92969 4.39453 2.92969ZM2.92969 49.1211H40.8199V52.0508H2.92969V49.1211ZM88.3148 25.8789L84.1582 37.1176C83.5234 38.8332 83.49 40.735 84.0641 42.4719L88.7051 56.543H43.7496V54.8344C45.1592 54.8068 46.5459 54.4047 47.4746 54.0654C48.4881 53.6953 49.1061 52.6891 48.9775 51.6195L48.3027 45.9619L53.9596 46.6361C55.0313 46.765 56.0391 46.1461 56.4066 45.1336C57.4246 42.3461 57.4252 40.1695 56.4068 37.3809C56.0367 36.3672 55.0311 35.7494 53.9609 35.8777L48.3031 36.5522L48.9773 30.8957C49.1061 29.825 48.4881 28.8186 47.4748 28.4486C46.5482 28.1102 45.1631 27.709 43.7496 27.6816V25.8789H88.3148ZM48.8393 15.2375C48.8611 15.2213 48.8824 15.2043 48.9033 15.1867L53.9057 11.2295V17.0898H46.4977L48.8393 15.2375Z" fill="black"/>
</g>
<defs>
<clipPath id="clip0">
<rect width="100" height="100" fill="white"/>
</clipPath>
</defs>
</svg>
