<svg viewBox="0 0 1212 174" fill="none" xmlns="http://www.w3.org/2000/svg">
<path d="M0 6.01538C0 3.24546 2.61667 1 5.84448 1H1206.16C1209.38 1 1212 3.24546 1212 6.01538V168.985C1212 171.755 1209.38 174 1206.16 174H5.84449C2.61667 174 0 171.755 0 168.985V6.01538Z" fill="#B01D1D"/>
<mask id="mask0" mask-type="alpha" maskUnits="userSpaceOnUse" x="0" y="1" width="1212" height="173">
<path d="M0 6.01538C0 3.24546 2.61667 1 5.84448 1H1206.16C1209.38 1 1212 3.24546 1212 6.01538V168.985C1212 171.755 1209.38 174 1206.16 174H5.84449C2.61667 174 0 171.755 0 168.985V6.01538Z" fill="#B01D1D"/>
</mask>
<g mask="url(#mask0)">
<path d="M-1 0H1214L-1 178V0Z" fill="#31427C"/>
</g>
</svg>
