<svg viewBox="0 0 36 36" fill="none" xmlns="http://www.w3.org/2000/svg">
<g opacity="0.5">
<path d="M19.5983 2.65755V1.91395H20.6371V0H15.4728V1.91395H16.4001V2.65755C12.4599 3.03135 8.92078 4.77283 6.25842 7.40311L5.83809 6.98358L6.45656 6.36672L5.74504 5.65601L3.51184 7.88921L4.22335 8.59992L4.8739 7.94777L5.33434 8.4066C2.81878 11.3305 1.28906 15.1279 1.28906 19.2879C1.28906 28.5175 8.76837 36 17.9996 36C27.2292 36 34.7109 28.5175 34.7109 19.2879C34.7109 10.5989 28.0771 3.46291 19.5983 2.65755ZM18.7095 33.2269V30.7362C18.7095 30.3472 18.3918 30.0263 17.9996 30.0263C17.6081 30.0263 17.2913 30.344 17.2913 30.7362V33.2269C10.1409 32.8684 4.42149 27.1482 4.06212 19.9978H6.44051C6.83197 19.9978 7.14962 19.6801 7.14962 19.2879C7.14962 18.898 6.83197 18.5796 6.44051 18.5796H4.06212C4.42149 11.4267 10.1441 5.70654 17.2961 5.34798C17.2961 5.35921 17.2913 5.36884 17.2913 5.38007V7.97825C17.2913 8.37051 17.6081 8.68816 17.9996 8.68816C18.3894 8.68816 18.7095 8.37051 18.7095 7.97825V5.38167C18.7095 5.37044 18.7031 5.36081 18.7031 5.34958C25.8535 5.70654 31.5785 11.4283 31.9387 18.5804H29.5386C29.1488 18.5804 28.8271 18.898 28.8271 19.2887C28.8271 19.6817 29.1448 19.9994 29.5386 19.9994H31.9387C31.5785 27.1482 25.8583 32.8684 18.7095 33.2269Z" fill="#232323"/>
<path d="M20.4067 20.1052C20.5294 19.7282 20.5816 19.3215 20.5238 18.902C20.3184 17.4316 18.9604 16.4057 17.4868 16.6102C16.0165 16.8139 14.9881 18.1744 15.1943 19.6464C15.3988 21.1159 16.7593 22.1419 18.2288 21.9381C18.7743 21.8611 19.2556 21.6261 19.6382 21.2876C21.4575 22.474 24.9036 24.7184 24.9036 24.7184L26.6675 25.0192L25.6817 23.5328L20.4067 20.1052Z" fill="#232323"/>
</g>
</svg>
