<svg viewBox="0 0 383 557" fill="none" xmlns="http://www.w3.org/2000/svg">
<path fill-rule="evenodd" clip-rule="evenodd" d="M0 15L29.4643 0V5.35714C32.5 5 37.5 5.57143 37.5 10.7143H40.7143C40.8929 9.46428 42 6.96429 45 6.96429C48 6.96429 49.1071 9.46428 49.2857 10.7143H75V15V19.2857H49.2857C49.1071 20.5357 48 23.0357 45 23.0357C42 23.0357 40.8929 20.5357 40.7143 19.2857H37.5C37.5 24.4286 32.5 25 29.4643 24.6429V30L0 15Z" fill="#7B6442"/>
<path fill-rule="evenodd" clip-rule="evenodd" d="M383 15L353.536 0V5.35714C350.5 5 345.5 5.57143 345.5 10.7143H342.286C342.107 9.46428 341 6.96429 338 6.96429C335 6.96429 333.893 9.46428 333.714 10.7143H67V15V19.2857H333.714C333.893 20.5357 335 23.0357 338 23.0357C341 23.0357 342.107 20.5357 342.286 19.2857H345.5C345.5 24.4286 350.5 25 353.536 24.6429V30L383 15Z" fill="#7B6442"/>
<path fill-rule="evenodd" clip-rule="evenodd" d="M98 9H67V38H67.0001L67.0001 142.499L67 442.484L67 551.028L189.817 465.605L318 557L318 38L318 28L318 9H287V28H263V9H232V28H208V9H177V28H153V9H122V28H98V9Z" fill="url(#paint0_linear)"/>
<defs>
<linearGradient id="paint0_linear" x1="67.0001" y1="-122" x2="289.964" y2="566.085" gradientUnits="userSpaceOnUse">
<stop stop-color="white"/>
<stop offset="0.494792" stop-color="#EFEAE1"/>
<stop offset="1" stop-color="#D7CCB9"/>
</linearGradient>
</defs>
</svg>
