<svg  viewBox="0 0 555 200" fill="none" xmlns="http://www.w3.org/2000/svg">
<path d="M482.898 199.995C118.7 196.539 459.884 196.539 95.6884 199.997C54.6524 200.476 6.84213 148.221 1.13163 106.032C-4.43284 63.8413 10.1727 -0.674401 52.7521 0.00532761C428.739 5.27892 124.593 5.2913 500.58 0.0177019C543.162 -0.659746 559.514 51.8407 553.949 94.0295C548.241 136.216 523.934 200.474 482.898 199.995Z" fill="#EFEAE1"/>
<path d="M482.898 199.995C118.7 196.539 459.884 196.539 95.6884 199.997C54.6524 200.476 6.84213 148.221 1.13163 106.032C-4.43284 63.8413 10.1727 -0.674401 52.7521 0.00532761C428.739 5.27892 124.593 5.2913 500.58 0.0177019C543.162 -0.659746 559.514 51.8407 553.949 94.0295C548.241 136.216 523.934 200.474 482.898 199.995Z" fill="url(#paint0_linear)"/>
<defs>
<linearGradient id="paint0_linear" x1="277.5" y1="0" x2="277.5" y2="200" gradientUnits="userSpaceOnUse">
<stop stop-color="#C13030"/>
<stop offset="0.494792" stop-color="#B01D1D"/>
<stop offset="1" stop-color="#8F1919"/>
</linearGradient>
</defs>
</svg>
